G04 #@! TF.FileFunction,Soldermask,Top*
%FSLAX46Y46*%
G04 Gerber Fmt 4.6, Leading zero omitted, Abs format (unit mm)*
G04 Created by KiCad (PCBNEW 4.0.2-stable) date 28.02.2017 09:35:37*
%MOMM*%
G01*
G04 APERTURE LIST*
%ADD10C,0.100000*%
%ADD11R,2.432000X2.432000*%
%ADD12O,2.432000X2.432000*%
%ADD13C,1.200000*%
%ADD14R,1.900000X1.650000*%
%ADD15R,2.127200X2.127200*%
%ADD16O,2.127200X2.127200*%
%ADD17R,1.900000X1.000000*%
%ADD18R,2.700000X2.600000*%
%ADD19R,2.940000X2.940000*%
%ADD20C,2.940000*%
%ADD21R,1.000000X1.500000*%
%ADD22R,3.200000X2.400000*%
%ADD23R,2.899360X2.701240*%
%ADD24R,2.899360X2.200860*%
%ADD25R,1.650000X1.900000*%
%ADD26R,2.000000X2.400000*%
%ADD27R,1.900000X1.700000*%
%ADD28R,1.700000X1.900000*%
%ADD29R,2.432000X2.127200*%
%ADD30O,2.432000X2.127200*%
%ADD31R,1.000000X1.900000*%
G04 APERTURE END LIST*
D10*
D11*
X109300000Y-53300000D03*
D12*
X111840000Y-53300000D03*
D13*
X109664500Y-71183500D03*
X109677200Y-66802000D03*
D14*
X139262800Y-92405200D03*
X141762800Y-92405200D03*
D13*
X114173000Y-76708000D03*
D15*
X158000000Y-75000000D03*
D16*
X155460000Y-75000000D03*
X158000000Y-72460000D03*
X155460000Y-72460000D03*
X158000000Y-69920000D03*
X155460000Y-69920000D03*
X158000000Y-67380000D03*
X155460000Y-67380000D03*
X158000000Y-64840000D03*
X155460000Y-64840000D03*
X158000000Y-62300000D03*
X155460000Y-62300000D03*
X158000000Y-59760000D03*
X155460000Y-59760000D03*
X158000000Y-57220000D03*
X155460000Y-57220000D03*
D17*
X165532380Y-89512880D03*
X165532380Y-88242880D03*
X165532380Y-86972880D03*
X165532380Y-85702880D03*
X165532380Y-84432880D03*
X165532380Y-83162880D03*
X165532380Y-81892880D03*
X160132380Y-81892880D03*
X160132380Y-83162880D03*
X160132380Y-84432880D03*
X160132380Y-85702880D03*
X160132380Y-86972880D03*
X160132380Y-88242880D03*
X160132380Y-89512880D03*
D15*
X128000000Y-75000000D03*
D16*
X125460000Y-75000000D03*
X128000000Y-72460000D03*
X125460000Y-72460000D03*
X128000000Y-69920000D03*
X125460000Y-69920000D03*
X128000000Y-67380000D03*
X125460000Y-67380000D03*
X128000000Y-64840000D03*
X125460000Y-64840000D03*
X128000000Y-62300000D03*
X125460000Y-62300000D03*
X128000000Y-59760000D03*
X125460000Y-59760000D03*
X128000000Y-57220000D03*
X125460000Y-57220000D03*
D15*
X102500000Y-54770000D03*
D16*
X105040000Y-54770000D03*
X102500000Y-57310000D03*
X105040000Y-57310000D03*
X102500000Y-59850000D03*
X105040000Y-59850000D03*
X102500000Y-62390000D03*
X105040000Y-62390000D03*
X102500000Y-64930000D03*
X105040000Y-64930000D03*
X102500000Y-67470000D03*
X105040000Y-67470000D03*
X102500000Y-70010000D03*
X105040000Y-70010000D03*
X102500000Y-72550000D03*
X105040000Y-72550000D03*
X102500000Y-75090000D03*
X105040000Y-75090000D03*
X102500000Y-77630000D03*
X105040000Y-77630000D03*
X102500000Y-80170000D03*
X105040000Y-80170000D03*
D18*
X125956180Y-88590120D03*
X133056180Y-88590120D03*
D19*
X105003600Y-85585300D03*
D20*
X105003600Y-90665300D03*
D15*
X143000000Y-75000000D03*
D16*
X140460000Y-75000000D03*
X143000000Y-72460000D03*
X140460000Y-72460000D03*
X143000000Y-69920000D03*
X140460000Y-69920000D03*
X143000000Y-67380000D03*
X140460000Y-67380000D03*
X143000000Y-64840000D03*
X140460000Y-64840000D03*
X143000000Y-62300000D03*
X140460000Y-62300000D03*
X143000000Y-59760000D03*
X140460000Y-59760000D03*
X143000000Y-57220000D03*
X140460000Y-57220000D03*
D15*
X173000000Y-75000000D03*
D16*
X170460000Y-75000000D03*
X173000000Y-72460000D03*
X170460000Y-72460000D03*
X173000000Y-69920000D03*
X170460000Y-69920000D03*
X173000000Y-67380000D03*
X170460000Y-67380000D03*
X173000000Y-64840000D03*
X170460000Y-64840000D03*
X173000000Y-62300000D03*
X170460000Y-62300000D03*
X173000000Y-59760000D03*
X170460000Y-59760000D03*
X173000000Y-57220000D03*
X170460000Y-57220000D03*
D21*
X123375780Y-89018660D03*
X122425780Y-89018660D03*
X121475780Y-89018660D03*
X121475780Y-91718660D03*
X122425780Y-91718660D03*
X123375780Y-91718660D03*
D22*
X153795100Y-83860000D03*
X153795100Y-88860000D03*
X148795100Y-83860000D03*
X148795100Y-88860000D03*
D23*
X115382040Y-85598000D03*
X111084360Y-85598000D03*
D24*
X125158500Y-94889320D03*
X129156460Y-94889320D03*
X115232180Y-90678000D03*
X111234220Y-90678000D03*
D25*
X145389600Y-88861900D03*
X145389600Y-86361900D03*
X115227100Y-93974600D03*
X115227100Y-96474600D03*
X157530800Y-87078500D03*
X157530800Y-89578500D03*
D26*
X121577100Y-97808800D03*
X121577100Y-93808800D03*
D25*
X123375780Y-84563900D03*
X123375780Y-87063900D03*
D26*
X133019800Y-97821500D03*
X133019800Y-93821500D03*
D14*
X117340700Y-53289200D03*
X114840700Y-53289200D03*
D26*
X145262600Y-96411800D03*
X145262600Y-92411800D03*
D25*
X117944900Y-93965200D03*
X117944900Y-96465200D03*
D27*
X118398300Y-87020400D03*
X121098300Y-87020400D03*
X121098300Y-84785200D03*
X118398300Y-84785200D03*
X171072800Y-89433400D03*
X168372800Y-89433400D03*
X171072800Y-86893400D03*
X168372800Y-86893400D03*
X171072800Y-84353400D03*
X168372800Y-84353400D03*
X171072800Y-81876900D03*
X168372800Y-81876900D03*
D28*
X157530800Y-81733400D03*
X157530800Y-84433400D03*
D29*
X167246300Y-92468700D03*
D30*
X167246300Y-95008700D03*
X167246300Y-97548700D03*
D29*
X161861500Y-92494100D03*
D30*
X161861500Y-95034100D03*
X161861500Y-97574100D03*
D25*
X147967700Y-96398400D03*
X147967700Y-93898400D03*
D31*
X150126700Y-97835700D03*
X151396700Y-97835700D03*
X152666700Y-97835700D03*
X153936700Y-97835700D03*
X155206700Y-97835700D03*
X156476700Y-97835700D03*
X157746700Y-97835700D03*
X157746700Y-92435700D03*
X156476700Y-92435700D03*
X155206700Y-92435700D03*
X153936700Y-92435700D03*
X152666700Y-92435700D03*
X151396700Y-92435700D03*
X150126700Y-92435700D03*
M02*
