G04 #@! TF.FileFunction,Legend,Top*
%FSLAX46Y46*%
G04 Gerber Fmt 4.6, Leading zero omitted, Abs format (unit mm)*
G04 Created by KiCad (PCBNEW 4.0.2-stable) date 28.02.2017 09:35:37*
%MOMM*%
G01*
G04 APERTURE LIST*
%ADD10C,0.100000*%
%ADD11C,0.300000*%
%ADD12C,0.150000*%
%ADD13C,0.200000*%
G04 APERTURE END LIST*
D10*
D11*
X108078572Y-94507143D02*
X109221429Y-94507143D01*
X108650000Y-95078571D02*
X108650000Y-93935714D01*
X108028572Y-82057143D02*
X109171429Y-82057143D01*
D12*
X108047619Y-56326905D02*
X108047619Y-55526905D01*
X108238095Y-55526905D01*
X108352381Y-55565000D01*
X108428572Y-55641190D01*
X108466667Y-55717381D01*
X108504762Y-55869762D01*
X108504762Y-55984048D01*
X108466667Y-56136429D01*
X108428572Y-56212619D01*
X108352381Y-56288810D01*
X108238095Y-56326905D01*
X108047619Y-56326905D01*
X108809524Y-56288810D02*
X108923810Y-56326905D01*
X109114286Y-56326905D01*
X109190476Y-56288810D01*
X109228572Y-56250714D01*
X109266667Y-56174524D01*
X109266667Y-56098333D01*
X109228572Y-56022143D01*
X109190476Y-55984048D01*
X109114286Y-55945952D01*
X108961905Y-55907857D01*
X108885714Y-55869762D01*
X108847619Y-55831667D01*
X108809524Y-55755476D01*
X108809524Y-55679286D01*
X108847619Y-55603095D01*
X108885714Y-55565000D01*
X108961905Y-55526905D01*
X109152381Y-55526905D01*
X109266667Y-55565000D01*
X109609524Y-56326905D02*
X109609524Y-55526905D01*
X109914286Y-55526905D01*
X109990477Y-55565000D01*
X110028572Y-55603095D01*
X110066667Y-55679286D01*
X110066667Y-55793571D01*
X110028572Y-55869762D01*
X109990477Y-55907857D01*
X109914286Y-55945952D01*
X109609524Y-55945952D01*
X110219048Y-56403095D02*
X110828572Y-56403095D01*
X111019048Y-56326905D02*
X111019048Y-55526905D01*
X111323810Y-55526905D01*
X111400001Y-55565000D01*
X111438096Y-55603095D01*
X111476191Y-55679286D01*
X111476191Y-55793571D01*
X111438096Y-55869762D01*
X111400001Y-55907857D01*
X111323810Y-55945952D01*
X111019048Y-55945952D01*
X111742858Y-55526905D02*
X111933334Y-56326905D01*
X112085715Y-55755476D01*
X112238096Y-56326905D01*
X112428572Y-55526905D01*
X113190477Y-56326905D02*
X112923810Y-55945952D01*
X112733334Y-56326905D02*
X112733334Y-55526905D01*
X113038096Y-55526905D01*
X113114287Y-55565000D01*
X113152382Y-55603095D01*
X113190477Y-55679286D01*
X113190477Y-55793571D01*
X113152382Y-55869762D01*
X113114287Y-55907857D01*
X113038096Y-55945952D01*
X112733334Y-55945952D01*
X170465876Y-95345205D02*
X170465876Y-94545205D01*
X170732543Y-95116633D01*
X170999210Y-94545205D01*
X170999210Y-95345205D01*
X171380162Y-95345205D02*
X171380162Y-94545205D01*
X171380162Y-94926157D02*
X171837305Y-94926157D01*
X171837305Y-95345205D02*
X171837305Y-94545205D01*
X172142067Y-94811871D02*
X172561114Y-94811871D01*
X172142067Y-95345205D01*
X172561114Y-95345205D01*
X169532543Y-97212195D02*
X169570638Y-97174100D01*
X169646829Y-97136005D01*
X169837305Y-97136005D01*
X169913495Y-97174100D01*
X169951591Y-97212195D01*
X169989686Y-97288386D01*
X169989686Y-97364576D01*
X169951591Y-97478862D01*
X169494448Y-97936005D01*
X169989686Y-97936005D01*
X170675400Y-97402671D02*
X170675400Y-97936005D01*
X170484924Y-97097910D02*
X170294448Y-97669338D01*
X170789686Y-97669338D01*
X171094448Y-97859814D02*
X171132543Y-97897910D01*
X171094448Y-97936005D01*
X171056353Y-97897910D01*
X171094448Y-97859814D01*
X171094448Y-97936005D01*
X171856353Y-97136005D02*
X171475400Y-97136005D01*
X171437305Y-97516957D01*
X171475400Y-97478862D01*
X171551591Y-97440767D01*
X171742067Y-97440767D01*
X171818257Y-97478862D01*
X171856353Y-97516957D01*
X171894448Y-97593148D01*
X171894448Y-97783624D01*
X171856353Y-97859814D01*
X171818257Y-97897910D01*
X171742067Y-97936005D01*
X171551591Y-97936005D01*
X171475400Y-97897910D01*
X171437305Y-97859814D01*
X172161115Y-97136005D02*
X172694448Y-97136005D01*
X172351591Y-97936005D01*
X173342067Y-97136005D02*
X173189686Y-97136005D01*
X173113496Y-97174100D01*
X173075401Y-97212195D01*
X172999210Y-97326481D01*
X172961115Y-97478862D01*
X172961115Y-97783624D01*
X172999210Y-97859814D01*
X173037305Y-97897910D01*
X173113496Y-97936005D01*
X173265877Y-97936005D01*
X173342067Y-97897910D01*
X173380163Y-97859814D01*
X173418258Y-97783624D01*
X173418258Y-97593148D01*
X173380163Y-97516957D01*
X173342067Y-97478862D01*
X173265877Y-97440767D01*
X173113496Y-97440767D01*
X173037305Y-97478862D01*
X172999210Y-97516957D01*
X172961115Y-97593148D01*
X170065886Y-92805205D02*
X169608743Y-92805205D01*
X169837314Y-92805205D02*
X169837314Y-92005205D01*
X169761124Y-92119490D01*
X169684933Y-92195681D01*
X169608743Y-92233776D01*
X170370648Y-92081395D02*
X170408743Y-92043300D01*
X170484934Y-92005205D01*
X170675410Y-92005205D01*
X170751600Y-92043300D01*
X170789696Y-92081395D01*
X170827791Y-92157586D01*
X170827791Y-92233776D01*
X170789696Y-92348062D01*
X170332553Y-92805205D01*
X170827791Y-92805205D01*
X171170648Y-92729014D02*
X171208743Y-92767110D01*
X171170648Y-92805205D01*
X171132553Y-92767110D01*
X171170648Y-92729014D01*
X171170648Y-92805205D01*
X171513505Y-92081395D02*
X171551600Y-92043300D01*
X171627791Y-92005205D01*
X171818267Y-92005205D01*
X171894457Y-92043300D01*
X171932553Y-92081395D01*
X171970648Y-92157586D01*
X171970648Y-92233776D01*
X171932553Y-92348062D01*
X171475410Y-92805205D01*
X171970648Y-92805205D01*
X172427791Y-92348062D02*
X172351600Y-92309967D01*
X172313505Y-92271871D01*
X172275410Y-92195681D01*
X172275410Y-92157586D01*
X172313505Y-92081395D01*
X172351600Y-92043300D01*
X172427791Y-92005205D01*
X172580172Y-92005205D01*
X172656362Y-92043300D01*
X172694458Y-92081395D01*
X172732553Y-92157586D01*
X172732553Y-92195681D01*
X172694458Y-92271871D01*
X172656362Y-92309967D01*
X172580172Y-92348062D01*
X172427791Y-92348062D01*
X172351600Y-92386157D01*
X172313505Y-92424252D01*
X172275410Y-92500443D01*
X172275410Y-92652824D01*
X172313505Y-92729014D01*
X172351600Y-92767110D01*
X172427791Y-92805205D01*
X172580172Y-92805205D01*
X172656362Y-92767110D01*
X172694458Y-92729014D01*
X172732553Y-92652824D01*
X172732553Y-92500443D01*
X172694458Y-92424252D01*
X172656362Y-92386157D01*
X172580172Y-92348062D01*
X173189696Y-92348062D02*
X173113505Y-92309967D01*
X173075410Y-92271871D01*
X173037315Y-92195681D01*
X173037315Y-92157586D01*
X173075410Y-92081395D01*
X173113505Y-92043300D01*
X173189696Y-92005205D01*
X173342077Y-92005205D01*
X173418267Y-92043300D01*
X173456363Y-92081395D01*
X173494458Y-92157586D01*
X173494458Y-92195681D01*
X173456363Y-92271871D01*
X173418267Y-92309967D01*
X173342077Y-92348062D01*
X173189696Y-92348062D01*
X173113505Y-92386157D01*
X173075410Y-92424252D01*
X173037315Y-92500443D01*
X173037315Y-92652824D01*
X173075410Y-92729014D01*
X173113505Y-92767110D01*
X173189696Y-92805205D01*
X173342077Y-92805205D01*
X173418267Y-92767110D01*
X173456363Y-92729014D01*
X173494458Y-92652824D01*
X173494458Y-92500443D01*
X173456363Y-92424252D01*
X173418267Y-92386157D01*
X173342077Y-92348062D01*
X165106305Y-98792848D02*
X164306305Y-98792848D01*
X164877733Y-98526181D01*
X164306305Y-98259514D01*
X165106305Y-98259514D01*
X165030114Y-97421419D02*
X165068210Y-97459514D01*
X165106305Y-97573800D01*
X165106305Y-97649990D01*
X165068210Y-97764276D01*
X164992019Y-97840467D01*
X164915829Y-97878562D01*
X164763448Y-97916657D01*
X164649162Y-97916657D01*
X164496781Y-97878562D01*
X164420590Y-97840467D01*
X164344400Y-97764276D01*
X164306305Y-97649990D01*
X164306305Y-97573800D01*
X164344400Y-97459514D01*
X164382495Y-97421419D01*
X165106305Y-96697609D02*
X165106305Y-97078562D01*
X164306305Y-97078562D01*
X165106305Y-96430943D02*
X164306305Y-96430943D01*
X165106305Y-95973800D02*
X164649162Y-96316657D01*
X164306305Y-95973800D02*
X164763448Y-96430943D01*
X165182495Y-95821419D02*
X165182495Y-95211895D01*
X165068210Y-95059514D02*
X165106305Y-94945228D01*
X165106305Y-94754752D01*
X165068210Y-94678562D01*
X165030114Y-94640466D01*
X164953924Y-94602371D01*
X164877733Y-94602371D01*
X164801543Y-94640466D01*
X164763448Y-94678562D01*
X164725352Y-94754752D01*
X164687257Y-94907133D01*
X164649162Y-94983324D01*
X164611067Y-95021419D01*
X164534876Y-95059514D01*
X164458686Y-95059514D01*
X164382495Y-95021419D01*
X164344400Y-94983324D01*
X164306305Y-94907133D01*
X164306305Y-94716657D01*
X164344400Y-94602371D01*
X165106305Y-94145228D02*
X165068210Y-94221419D01*
X164992019Y-94259514D01*
X164306305Y-94259514D01*
X165106305Y-93497609D02*
X164687257Y-93497609D01*
X164611067Y-93535704D01*
X164572971Y-93611894D01*
X164572971Y-93764275D01*
X164611067Y-93840466D01*
X165068210Y-93497609D02*
X165106305Y-93573799D01*
X165106305Y-93764275D01*
X165068210Y-93840466D01*
X164992019Y-93878561D01*
X164915829Y-93878561D01*
X164839638Y-93840466D01*
X164801543Y-93764275D01*
X164801543Y-93573799D01*
X164763448Y-93497609D01*
X164572971Y-93192846D02*
X165106305Y-93002370D01*
X164572971Y-92811894D01*
X165068210Y-92202370D02*
X165106305Y-92278560D01*
X165106305Y-92430941D01*
X165068210Y-92507132D01*
X164992019Y-92545227D01*
X164687257Y-92545227D01*
X164611067Y-92507132D01*
X164572971Y-92430941D01*
X164572971Y-92278560D01*
X164611067Y-92202370D01*
X164687257Y-92164275D01*
X164763448Y-92164275D01*
X164839638Y-92545227D01*
X165068210Y-91859513D02*
X165106305Y-91783323D01*
X165106305Y-91630942D01*
X165068210Y-91554751D01*
X164992019Y-91516656D01*
X164953924Y-91516656D01*
X164877733Y-91554751D01*
X164839638Y-91630942D01*
X164839638Y-91745227D01*
X164801543Y-91821418D01*
X164725352Y-91859513D01*
X164687257Y-91859513D01*
X164611067Y-91821418D01*
X164572971Y-91745227D01*
X164572971Y-91630942D01*
X164611067Y-91554751D01*
X159785005Y-98862791D02*
X158985005Y-98862791D01*
X159556433Y-98596124D01*
X158985005Y-98329457D01*
X159785005Y-98329457D01*
X159708814Y-97491362D02*
X159746910Y-97529457D01*
X159785005Y-97643743D01*
X159785005Y-97719933D01*
X159746910Y-97834219D01*
X159670719Y-97910410D01*
X159594529Y-97948505D01*
X159442148Y-97986600D01*
X159327862Y-97986600D01*
X159175481Y-97948505D01*
X159099290Y-97910410D01*
X159023100Y-97834219D01*
X158985005Y-97719933D01*
X158985005Y-97643743D01*
X159023100Y-97529457D01*
X159061195Y-97491362D01*
X159785005Y-96767552D02*
X159785005Y-97148505D01*
X158985005Y-97148505D01*
X159785005Y-96500886D02*
X158985005Y-96500886D01*
X159785005Y-96043743D02*
X159327862Y-96386600D01*
X158985005Y-96043743D02*
X159442148Y-96500886D01*
X159861195Y-95891362D02*
X159861195Y-95281838D01*
X159785005Y-95091362D02*
X158985005Y-95091362D01*
X158985005Y-94900886D01*
X159023100Y-94786600D01*
X159099290Y-94710409D01*
X159175481Y-94672314D01*
X159327862Y-94634219D01*
X159442148Y-94634219D01*
X159594529Y-94672314D01*
X159670719Y-94710409D01*
X159746910Y-94786600D01*
X159785005Y-94900886D01*
X159785005Y-95091362D01*
X159746910Y-94329457D02*
X159785005Y-94215171D01*
X159785005Y-94024695D01*
X159746910Y-93948505D01*
X159708814Y-93910409D01*
X159632624Y-93872314D01*
X159556433Y-93872314D01*
X159480243Y-93910409D01*
X159442148Y-93948505D01*
X159404052Y-94024695D01*
X159365957Y-94177076D01*
X159327862Y-94253267D01*
X159289767Y-94291362D01*
X159213576Y-94329457D01*
X159137386Y-94329457D01*
X159061195Y-94291362D01*
X159023100Y-94253267D01*
X158985005Y-94177076D01*
X158985005Y-93986600D01*
X159023100Y-93872314D01*
X159785005Y-93529457D02*
X158985005Y-93529457D01*
X158985005Y-93224695D01*
X159023100Y-93148504D01*
X159061195Y-93110409D01*
X159137386Y-93072314D01*
X159251671Y-93072314D01*
X159327862Y-93110409D01*
X159365957Y-93148504D01*
X159404052Y-93224695D01*
X159404052Y-93529457D01*
X110570000Y-52030000D02*
X113110000Y-52030000D01*
X107750000Y-51750000D02*
X109300000Y-51750000D01*
X110570000Y-52030000D02*
X110570000Y-54570000D01*
X109300000Y-54850000D02*
X107750000Y-54850000D01*
X107750000Y-54850000D02*
X107750000Y-51750000D01*
X110570000Y-54570000D02*
X113110000Y-54570000D01*
X113110000Y-54570000D02*
X113110000Y-52030000D01*
X141012800Y-91555200D02*
X140012800Y-91555200D01*
X140012800Y-93255200D02*
X141012800Y-93255200D01*
X152180000Y-80080000D02*
X152180000Y-52140000D01*
X152730000Y-79540000D02*
X152730000Y-52700000D01*
X161280000Y-80080000D02*
X161280000Y-52140000D01*
X160730000Y-79540000D02*
X160730000Y-68360000D01*
X160730000Y-63860000D02*
X160730000Y-52700000D01*
X160730000Y-68360000D02*
X161280000Y-68360000D01*
X160730000Y-63860000D02*
X161280000Y-63860000D01*
X152180000Y-80080000D02*
X161280000Y-80080000D01*
X152730000Y-79540000D02*
X160730000Y-79540000D01*
X152180000Y-52140000D02*
X161280000Y-52140000D01*
X152730000Y-52700000D02*
X160730000Y-52700000D01*
X152180000Y-80080000D02*
X152730000Y-79540000D01*
X152180000Y-52140000D02*
X152730000Y-52700000D01*
X161280000Y-80080000D02*
X160730000Y-79540000D01*
X161280000Y-52140000D02*
X160730000Y-52700000D01*
X164082380Y-90152880D02*
X164082380Y-81252880D01*
X161232380Y-90152880D02*
X161232380Y-81252880D01*
X164432380Y-90152880D02*
X164432380Y-81252880D01*
X164432380Y-90152880D02*
X161232380Y-90152880D01*
X164432380Y-81252880D02*
X161232380Y-81252880D01*
X122180000Y-80080000D02*
X122180000Y-52140000D01*
X122730000Y-79540000D02*
X122730000Y-52700000D01*
X131280000Y-80080000D02*
X131280000Y-52140000D01*
X130730000Y-79540000D02*
X130730000Y-68360000D01*
X130730000Y-63860000D02*
X130730000Y-52700000D01*
X130730000Y-68360000D02*
X131280000Y-68360000D01*
X130730000Y-63860000D02*
X131280000Y-63860000D01*
X122180000Y-80080000D02*
X131280000Y-80080000D01*
X122730000Y-79540000D02*
X130730000Y-79540000D01*
X122180000Y-52140000D02*
X131280000Y-52140000D01*
X122730000Y-52700000D02*
X130730000Y-52700000D01*
X122180000Y-80080000D02*
X122730000Y-79540000D01*
X122180000Y-52140000D02*
X122730000Y-52700000D01*
X131280000Y-80080000D02*
X130730000Y-79540000D01*
X131280000Y-52140000D02*
X130730000Y-52700000D01*
X106310000Y-81440000D02*
X106310000Y-53500000D01*
X101230000Y-56040000D02*
X101230000Y-81440000D01*
X106310000Y-81440000D02*
X101230000Y-81440000D01*
X106310000Y-53500000D02*
X103770000Y-53500000D01*
X102500000Y-53220000D02*
X100950000Y-53220000D01*
X103770000Y-53500000D02*
X103770000Y-56040000D01*
X103770000Y-56040000D02*
X101230000Y-56040000D01*
X100950000Y-53220000D02*
X100950000Y-54770000D01*
X127170180Y-90876120D02*
G75*
G03X131742180Y-90876120I2286000J2286000D01*
G01*
X131742180Y-86304120D02*
G75*
G03X127170180Y-86304120I-2286000J-2286000D01*
G01*
X133106180Y-92240120D02*
X133106180Y-89990120D01*
X133106180Y-84940120D02*
X133106180Y-87190120D01*
X125806180Y-92240120D02*
X125806180Y-89990120D01*
X125806180Y-84940120D02*
X125806180Y-87190120D01*
X133106180Y-92240120D02*
X125806180Y-92240120D01*
X125806180Y-84940120D02*
X133106180Y-84940120D01*
X102463600Y-93205300D02*
X102463600Y-83045300D01*
X101003600Y-93205300D02*
X109003600Y-93205300D01*
X109003600Y-93205300D02*
X109003600Y-83045300D01*
X109003600Y-83045300D02*
X101003600Y-83045300D01*
X100953600Y-83045300D02*
X100953600Y-93205300D01*
X137180000Y-80080000D02*
X137180000Y-52140000D01*
X137730000Y-79540000D02*
X137730000Y-52700000D01*
X146280000Y-80080000D02*
X146280000Y-52140000D01*
X145730000Y-79540000D02*
X145730000Y-68360000D01*
X145730000Y-63860000D02*
X145730000Y-52700000D01*
X145730000Y-68360000D02*
X146280000Y-68360000D01*
X145730000Y-63860000D02*
X146280000Y-63860000D01*
X137180000Y-80080000D02*
X146280000Y-80080000D01*
X137730000Y-79540000D02*
X145730000Y-79540000D01*
X137180000Y-52140000D02*
X146280000Y-52140000D01*
X137730000Y-52700000D02*
X145730000Y-52700000D01*
X137180000Y-80080000D02*
X137730000Y-79540000D01*
X137180000Y-52140000D02*
X137730000Y-52700000D01*
X146280000Y-80080000D02*
X145730000Y-79540000D01*
X146280000Y-52140000D02*
X145730000Y-52700000D01*
X167180000Y-80080000D02*
X167180000Y-52140000D01*
X167730000Y-79540000D02*
X167730000Y-52700000D01*
X176280000Y-80080000D02*
X176280000Y-52140000D01*
X175730000Y-79540000D02*
X175730000Y-68360000D01*
X175730000Y-63860000D02*
X175730000Y-52700000D01*
X175730000Y-68360000D02*
X176280000Y-68360000D01*
X175730000Y-63860000D02*
X176280000Y-63860000D01*
X167180000Y-80080000D02*
X176280000Y-80080000D01*
X167730000Y-79540000D02*
X175730000Y-79540000D01*
X167180000Y-52140000D02*
X176280000Y-52140000D01*
X167730000Y-52700000D02*
X175730000Y-52700000D01*
X167180000Y-80080000D02*
X167730000Y-79540000D01*
X167180000Y-52140000D02*
X167730000Y-52700000D01*
X176280000Y-80080000D02*
X175730000Y-79540000D01*
X176280000Y-52140000D02*
X175730000Y-52700000D01*
D10*
X124025780Y-89218660D02*
G75*
G03X124025780Y-89218660I-50000J0D01*
G01*
X120875780Y-89418660D02*
X120875780Y-91318660D01*
X123975780Y-89418660D02*
X123975780Y-91318660D01*
X154295100Y-82360000D02*
X148295100Y-82360000D01*
X154295100Y-90360000D02*
X148295100Y-90360000D01*
D13*
X148195100Y-82160000D02*
G75*
G03X148195100Y-82160000I-100000J0D01*
G01*
D12*
X115539520Y-83798000D02*
X115539520Y-83997800D01*
X115082480Y-83848000D02*
X115082480Y-83997000D01*
X110937040Y-83798000D02*
X110937040Y-83947000D01*
X115534440Y-87398000D02*
X115534440Y-87249000D01*
X115082480Y-87398000D02*
X115082480Y-87249000D01*
X110931960Y-87398000D02*
X110931960Y-87249000D01*
X115082480Y-83649020D02*
X115082480Y-83847140D01*
X115082480Y-87596980D02*
X115082480Y-87398860D01*
X110937040Y-83601560D02*
X110937040Y-83799680D01*
X115539520Y-83601560D02*
X110937040Y-83601560D01*
X115539520Y-83601560D02*
X115539520Y-83799680D01*
X115534440Y-87596980D02*
X115534440Y-87398860D01*
X115534440Y-87596980D02*
X110931960Y-87596980D01*
X110931960Y-87596980D02*
X110931960Y-87398860D01*
X125358340Y-96639380D02*
X125358340Y-96288860D01*
X125358340Y-93139260D02*
X125358340Y-93489780D01*
X129407920Y-96639380D02*
X129407920Y-96288860D01*
X124907040Y-96639380D02*
X124907040Y-96288860D01*
X124907040Y-93139260D02*
X124907040Y-93489780D01*
X129407920Y-93139260D02*
X129407920Y-93489780D01*
X124907040Y-96639380D02*
X129407920Y-96639380D01*
X124907040Y-93139260D02*
X129407920Y-93139260D01*
X115032340Y-88927940D02*
X115032340Y-89278460D01*
X115032340Y-92428060D02*
X115032340Y-92077540D01*
X110982760Y-88927940D02*
X110982760Y-89278460D01*
X115483640Y-88927940D02*
X115483640Y-89278460D01*
X115483640Y-92428060D02*
X115483640Y-92077540D01*
X110982760Y-92428060D02*
X110982760Y-92077540D01*
X115483640Y-88927940D02*
X110982760Y-88927940D01*
X115483640Y-92428060D02*
X110982760Y-92428060D01*
X144539600Y-87111900D02*
X144539600Y-88111900D01*
X146239600Y-88111900D02*
X146239600Y-87111900D01*
X116077100Y-95724600D02*
X116077100Y-94724600D01*
X114377100Y-94724600D02*
X114377100Y-95724600D01*
X158380800Y-88828500D02*
X158380800Y-87828500D01*
X156680800Y-87828500D02*
X156680800Y-88828500D01*
X120552100Y-94808800D02*
X120552100Y-96808800D01*
X122602100Y-96808800D02*
X122602100Y-94808800D01*
X124225780Y-86313900D02*
X124225780Y-85313900D01*
X122525780Y-85313900D02*
X122525780Y-86313900D01*
X131994800Y-94821500D02*
X131994800Y-96821500D01*
X134044800Y-96821500D02*
X134044800Y-94821500D01*
X115590700Y-54139200D02*
X116590700Y-54139200D01*
X116590700Y-52439200D02*
X115590700Y-52439200D01*
X144237600Y-93411800D02*
X144237600Y-95411800D01*
X146287600Y-95411800D02*
X146287600Y-93411800D01*
X118794900Y-95715200D02*
X118794900Y-94715200D01*
X117094900Y-94715200D02*
X117094900Y-95715200D01*
X120348300Y-87895400D02*
X119148300Y-87895400D01*
X119148300Y-86145400D02*
X120348300Y-86145400D01*
X119148300Y-83910200D02*
X120348300Y-83910200D01*
X120348300Y-85660200D02*
X119148300Y-85660200D01*
X169122800Y-88558400D02*
X170322800Y-88558400D01*
X170322800Y-90308400D02*
X169122800Y-90308400D01*
X169122800Y-86018400D02*
X170322800Y-86018400D01*
X170322800Y-87768400D02*
X169122800Y-87768400D01*
X169122800Y-83478400D02*
X170322800Y-83478400D01*
X170322800Y-85228400D02*
X169122800Y-85228400D01*
X169122800Y-81001900D02*
X170322800Y-81001900D01*
X170322800Y-82751900D02*
X169122800Y-82751900D01*
X156655800Y-83683400D02*
X156655800Y-82483400D01*
X158405800Y-82483400D02*
X158405800Y-83683400D01*
X165976300Y-93738700D02*
X165976300Y-98818700D01*
X165976300Y-98818700D02*
X168516300Y-98818700D01*
X168516300Y-98818700D02*
X168516300Y-93738700D01*
X168796300Y-90918700D02*
X168796300Y-92468700D01*
X168516300Y-93738700D02*
X165976300Y-93738700D01*
X165696300Y-92468700D02*
X165696300Y-90918700D01*
X165696300Y-90918700D02*
X168796300Y-90918700D01*
X160591500Y-93764100D02*
X160591500Y-98844100D01*
X160591500Y-98844100D02*
X163131500Y-98844100D01*
X163131500Y-98844100D02*
X163131500Y-93764100D01*
X163411500Y-90944100D02*
X163411500Y-92494100D01*
X163131500Y-93764100D02*
X160591500Y-93764100D01*
X160311500Y-92494100D02*
X160311500Y-90944100D01*
X160311500Y-90944100D02*
X163411500Y-90944100D01*
X147117700Y-94648400D02*
X147117700Y-95648400D01*
X148817700Y-95648400D02*
X148817700Y-94648400D01*
X149486700Y-96385700D02*
X158386700Y-96385700D01*
X149486700Y-93535700D02*
X158386700Y-93535700D01*
X149486700Y-96735700D02*
X158386700Y-96735700D01*
X149486700Y-96735700D02*
X149486700Y-93535700D01*
X158386700Y-96735700D02*
X158386700Y-93535700D01*
X139666667Y-90504971D02*
X139333333Y-90504971D01*
X139333333Y-91028781D02*
X139333333Y-90028781D01*
X139809524Y-90028781D01*
X140523810Y-90504971D02*
X140666667Y-90552590D01*
X140714286Y-90600210D01*
X140761905Y-90695448D01*
X140761905Y-90838305D01*
X140714286Y-90933543D01*
X140666667Y-90981162D01*
X140571429Y-91028781D01*
X140190476Y-91028781D01*
X140190476Y-90028781D01*
X140523810Y-90028781D01*
X140619048Y-90076400D01*
X140666667Y-90124019D01*
X140714286Y-90219257D01*
X140714286Y-90314495D01*
X140666667Y-90409733D01*
X140619048Y-90457352D01*
X140523810Y-90504971D01*
X140190476Y-90504971D01*
X141142857Y-90124019D02*
X141190476Y-90076400D01*
X141285714Y-90028781D01*
X141523810Y-90028781D01*
X141619048Y-90076400D01*
X141666667Y-90124019D01*
X141714286Y-90219257D01*
X141714286Y-90314495D01*
X141666667Y-90457352D01*
X141095238Y-91028781D01*
X141714286Y-91028781D01*
X150832381Y-66848095D02*
X149832381Y-66848095D01*
X149832381Y-66467142D01*
X149880000Y-66371904D01*
X149927619Y-66324285D01*
X150022857Y-66276666D01*
X150165714Y-66276666D01*
X150260952Y-66324285D01*
X150308571Y-66371904D01*
X150356190Y-66467142D01*
X150356190Y-66848095D01*
X149832381Y-65371904D02*
X149832381Y-65848095D01*
X150308571Y-65895714D01*
X150260952Y-65848095D01*
X150213333Y-65752857D01*
X150213333Y-65514761D01*
X150260952Y-65419523D01*
X150308571Y-65371904D01*
X150403810Y-65324285D01*
X150641905Y-65324285D01*
X150737143Y-65371904D01*
X150784762Y-65419523D01*
X150832381Y-65514761D01*
X150832381Y-65752857D01*
X150784762Y-65848095D01*
X150737143Y-65895714D01*
X162031775Y-79589381D02*
X162031775Y-80398905D01*
X162079394Y-80494143D01*
X162127013Y-80541762D01*
X162222251Y-80589381D01*
X162412728Y-80589381D01*
X162507966Y-80541762D01*
X162555585Y-80494143D01*
X162603204Y-80398905D01*
X162603204Y-79589381D01*
X163603204Y-80589381D02*
X163031775Y-80589381D01*
X163317489Y-80589381D02*
X163317489Y-79589381D01*
X163222251Y-79732238D01*
X163127013Y-79827476D01*
X163031775Y-79875095D01*
X120832381Y-66848095D02*
X119832381Y-66848095D01*
X119832381Y-66467142D01*
X119880000Y-66371904D01*
X119927619Y-66324285D01*
X120022857Y-66276666D01*
X120165714Y-66276666D01*
X120260952Y-66324285D01*
X120308571Y-66371904D01*
X120356190Y-66467142D01*
X120356190Y-66848095D01*
X119832381Y-65943333D02*
X119832381Y-65324285D01*
X120213333Y-65657619D01*
X120213333Y-65514761D01*
X120260952Y-65419523D01*
X120308571Y-65371904D01*
X120403810Y-65324285D01*
X120641905Y-65324285D01*
X120737143Y-65371904D01*
X120784762Y-65419523D01*
X120832381Y-65514761D01*
X120832381Y-65800476D01*
X120784762Y-65895714D01*
X120737143Y-65943333D01*
X102995505Y-52547781D02*
X102995505Y-51547781D01*
X103376458Y-51547781D01*
X103471696Y-51595400D01*
X103519315Y-51643019D01*
X103566934Y-51738257D01*
X103566934Y-51881114D01*
X103519315Y-51976352D01*
X103471696Y-52023971D01*
X103376458Y-52071590D01*
X102995505Y-52071590D01*
X103947886Y-51643019D02*
X103995505Y-51595400D01*
X104090743Y-51547781D01*
X104328839Y-51547781D01*
X104424077Y-51595400D01*
X104471696Y-51643019D01*
X104519315Y-51738257D01*
X104519315Y-51833495D01*
X104471696Y-51976352D01*
X103900267Y-52547781D01*
X104519315Y-52547781D01*
X129289514Y-84392501D02*
X128813323Y-84392501D01*
X128813323Y-83392501D01*
X130146657Y-84392501D02*
X129575228Y-84392501D01*
X129860942Y-84392501D02*
X129860942Y-83392501D01*
X129765704Y-83535358D01*
X129670466Y-83630596D01*
X129575228Y-83678215D01*
X105661905Y-94952381D02*
X105661905Y-93952381D01*
X106042858Y-93952381D01*
X106138096Y-94000000D01*
X106185715Y-94047619D01*
X106233334Y-94142857D01*
X106233334Y-94285714D01*
X106185715Y-94380952D01*
X106138096Y-94428571D01*
X106042858Y-94476190D01*
X105661905Y-94476190D01*
X107185715Y-94952381D02*
X106614286Y-94952381D01*
X106900000Y-94952381D02*
X106900000Y-93952381D01*
X106804762Y-94095238D01*
X106709524Y-94190476D01*
X106614286Y-94238095D01*
X135832381Y-66848095D02*
X134832381Y-66848095D01*
X134832381Y-66467142D01*
X134880000Y-66371904D01*
X134927619Y-66324285D01*
X135022857Y-66276666D01*
X135165714Y-66276666D01*
X135260952Y-66324285D01*
X135308571Y-66371904D01*
X135356190Y-66467142D01*
X135356190Y-66848095D01*
X135165714Y-65419523D02*
X135832381Y-65419523D01*
X134784762Y-65657619D02*
X135499048Y-65895714D01*
X135499048Y-65276666D01*
X165832381Y-66848095D02*
X164832381Y-66848095D01*
X164832381Y-66467142D01*
X164880000Y-66371904D01*
X164927619Y-66324285D01*
X165022857Y-66276666D01*
X165165714Y-66276666D01*
X165260952Y-66324285D01*
X165308571Y-66371904D01*
X165356190Y-66467142D01*
X165356190Y-66848095D01*
X164832381Y-65419523D02*
X164832381Y-65610000D01*
X164880000Y-65705238D01*
X164927619Y-65752857D01*
X165070476Y-65848095D01*
X165260952Y-65895714D01*
X165641905Y-65895714D01*
X165737143Y-65848095D01*
X165784762Y-65800476D01*
X165832381Y-65705238D01*
X165832381Y-65514761D01*
X165784762Y-65419523D01*
X165737143Y-65371904D01*
X165641905Y-65324285D01*
X165403810Y-65324285D01*
X165308571Y-65371904D01*
X165260952Y-65419523D01*
X165213333Y-65514761D01*
X165213333Y-65705238D01*
X165260952Y-65800476D01*
X165308571Y-65848095D01*
X165403810Y-65895714D01*
X119454681Y-91130565D02*
X120264205Y-91130565D01*
X120359443Y-91082946D01*
X120407062Y-91035327D01*
X120454681Y-90940089D01*
X120454681Y-90749612D01*
X120407062Y-90654374D01*
X120359443Y-90606755D01*
X120264205Y-90559136D01*
X119454681Y-90559136D01*
X119549919Y-90130565D02*
X119502300Y-90082946D01*
X119454681Y-89987708D01*
X119454681Y-89749612D01*
X119502300Y-89654374D01*
X119549919Y-89606755D01*
X119645157Y-89559136D01*
X119740395Y-89559136D01*
X119883252Y-89606755D01*
X120454681Y-90178184D01*
X120454681Y-89559136D01*
X149590476Y-80552381D02*
X150257143Y-81552381D01*
X150257143Y-80552381D02*
X149590476Y-81552381D01*
X151161905Y-81552381D02*
X150590476Y-81552381D01*
X150876190Y-81552381D02*
X150876190Y-80552381D01*
X150780952Y-80695238D01*
X150685714Y-80790476D01*
X150590476Y-80838095D01*
X111021905Y-83053181D02*
X111021905Y-82053181D01*
X111260000Y-82053181D01*
X111402858Y-82100800D01*
X111498096Y-82196038D01*
X111545715Y-82291276D01*
X111593334Y-82481752D01*
X111593334Y-82624610D01*
X111545715Y-82815086D01*
X111498096Y-82910324D01*
X111402858Y-83005562D01*
X111260000Y-83053181D01*
X111021905Y-83053181D01*
X112545715Y-83053181D02*
X111974286Y-83053181D01*
X112260000Y-83053181D02*
X112260000Y-82053181D01*
X112164762Y-82196038D01*
X112069524Y-82291276D01*
X111974286Y-82338895D01*
X126361905Y-98152381D02*
X126361905Y-97152381D01*
X126600000Y-97152381D01*
X126742858Y-97200000D01*
X126838096Y-97295238D01*
X126885715Y-97390476D01*
X126933334Y-97580952D01*
X126933334Y-97723810D01*
X126885715Y-97914286D01*
X126838096Y-98009524D01*
X126742858Y-98104762D01*
X126600000Y-98152381D01*
X126361905Y-98152381D01*
X127314286Y-97247619D02*
X127361905Y-97200000D01*
X127457143Y-97152381D01*
X127695239Y-97152381D01*
X127790477Y-97200000D01*
X127838096Y-97247619D01*
X127885715Y-97342857D01*
X127885715Y-97438095D01*
X127838096Y-97580952D01*
X127266667Y-98152381D01*
X127885715Y-98152381D01*
X111021905Y-94025981D02*
X111021905Y-93025981D01*
X111260000Y-93025981D01*
X111402858Y-93073600D01*
X111498096Y-93168838D01*
X111545715Y-93264076D01*
X111593334Y-93454552D01*
X111593334Y-93597410D01*
X111545715Y-93787886D01*
X111498096Y-93883124D01*
X111402858Y-93978362D01*
X111260000Y-94025981D01*
X111021905Y-94025981D01*
X111926667Y-93025981D02*
X112545715Y-93025981D01*
X112212381Y-93406933D01*
X112355239Y-93406933D01*
X112450477Y-93454552D01*
X112498096Y-93502171D01*
X112545715Y-93597410D01*
X112545715Y-93835505D01*
X112498096Y-93930743D01*
X112450477Y-93978362D01*
X112355239Y-94025981D01*
X112069524Y-94025981D01*
X111974286Y-93978362D01*
X111926667Y-93930743D01*
X145248334Y-84751183D02*
X145200715Y-84798802D01*
X145057858Y-84846421D01*
X144962620Y-84846421D01*
X144819762Y-84798802D01*
X144724524Y-84703564D01*
X144676905Y-84608326D01*
X144629286Y-84417850D01*
X144629286Y-84274992D01*
X144676905Y-84084516D01*
X144724524Y-83989278D01*
X144819762Y-83894040D01*
X144962620Y-83846421D01*
X145057858Y-83846421D01*
X145200715Y-83894040D01*
X145248334Y-83941659D01*
X146200715Y-84846421D02*
X145629286Y-84846421D01*
X145915000Y-84846421D02*
X145915000Y-83846421D01*
X145819762Y-83989278D01*
X145724524Y-84084516D01*
X145629286Y-84132135D01*
X114971534Y-98693243D02*
X114923915Y-98740862D01*
X114781058Y-98788481D01*
X114685820Y-98788481D01*
X114542962Y-98740862D01*
X114447724Y-98645624D01*
X114400105Y-98550386D01*
X114352486Y-98359910D01*
X114352486Y-98217052D01*
X114400105Y-98026576D01*
X114447724Y-97931338D01*
X114542962Y-97836100D01*
X114685820Y-97788481D01*
X114781058Y-97788481D01*
X114923915Y-97836100D01*
X114971534Y-97883719D01*
X115352486Y-97883719D02*
X115400105Y-97836100D01*
X115495343Y-97788481D01*
X115733439Y-97788481D01*
X115828677Y-97836100D01*
X115876296Y-97883719D01*
X115923915Y-97978957D01*
X115923915Y-98074195D01*
X115876296Y-98217052D01*
X115304867Y-98788481D01*
X115923915Y-98788481D01*
X156257143Y-86766666D02*
X156304762Y-86814285D01*
X156352381Y-86957142D01*
X156352381Y-87052380D01*
X156304762Y-87195238D01*
X156209524Y-87290476D01*
X156114286Y-87338095D01*
X155923810Y-87385714D01*
X155780952Y-87385714D01*
X155590476Y-87338095D01*
X155495238Y-87290476D01*
X155400000Y-87195238D01*
X155352381Y-87052380D01*
X155352381Y-86957142D01*
X155400000Y-86814285D01*
X155447619Y-86766666D01*
X155352381Y-86433333D02*
X155352381Y-85814285D01*
X155733333Y-86147619D01*
X155733333Y-86004761D01*
X155780952Y-85909523D01*
X155828571Y-85861904D01*
X155923810Y-85814285D01*
X156161905Y-85814285D01*
X156257143Y-85861904D01*
X156304762Y-85909523D01*
X156352381Y-86004761D01*
X156352381Y-86290476D01*
X156304762Y-86385714D01*
X156257143Y-86433333D01*
X120143543Y-95962766D02*
X120191162Y-96010385D01*
X120238781Y-96153242D01*
X120238781Y-96248480D01*
X120191162Y-96391338D01*
X120095924Y-96486576D01*
X120000686Y-96534195D01*
X119810210Y-96581814D01*
X119667352Y-96581814D01*
X119476876Y-96534195D01*
X119381638Y-96486576D01*
X119286400Y-96391338D01*
X119238781Y-96248480D01*
X119238781Y-96153242D01*
X119286400Y-96010385D01*
X119334019Y-95962766D01*
X119572114Y-95105623D02*
X120238781Y-95105623D01*
X119191162Y-95343719D02*
X119905448Y-95581814D01*
X119905448Y-94962766D01*
X123188434Y-83161143D02*
X123140815Y-83208762D01*
X122997958Y-83256381D01*
X122902720Y-83256381D01*
X122759862Y-83208762D01*
X122664624Y-83113524D01*
X122617005Y-83018286D01*
X122569386Y-82827810D01*
X122569386Y-82684952D01*
X122617005Y-82494476D01*
X122664624Y-82399238D01*
X122759862Y-82304000D01*
X122902720Y-82256381D01*
X122997958Y-82256381D01*
X123140815Y-82304000D01*
X123188434Y-82351619D01*
X124093196Y-82256381D02*
X123617005Y-82256381D01*
X123569386Y-82732571D01*
X123617005Y-82684952D01*
X123712243Y-82637333D01*
X123950339Y-82637333D01*
X124045577Y-82684952D01*
X124093196Y-82732571D01*
X124140815Y-82827810D01*
X124140815Y-83065905D01*
X124093196Y-83161143D01*
X124045577Y-83208762D01*
X123950339Y-83256381D01*
X123712243Y-83256381D01*
X123617005Y-83208762D01*
X123569386Y-83161143D01*
X135497843Y-95988166D02*
X135545462Y-96035785D01*
X135593081Y-96178642D01*
X135593081Y-96273880D01*
X135545462Y-96416738D01*
X135450224Y-96511976D01*
X135354986Y-96559595D01*
X135164510Y-96607214D01*
X135021652Y-96607214D01*
X134831176Y-96559595D01*
X134735938Y-96511976D01*
X134640700Y-96416738D01*
X134593081Y-96273880D01*
X134593081Y-96178642D01*
X134640700Y-96035785D01*
X134688319Y-95988166D01*
X134593081Y-95131023D02*
X134593081Y-95321500D01*
X134640700Y-95416738D01*
X134688319Y-95464357D01*
X134831176Y-95559595D01*
X135021652Y-95607214D01*
X135402605Y-95607214D01*
X135497843Y-95559595D01*
X135545462Y-95511976D01*
X135593081Y-95416738D01*
X135593081Y-95226261D01*
X135545462Y-95131023D01*
X135497843Y-95083404D01*
X135402605Y-95035785D01*
X135164510Y-95035785D01*
X135069271Y-95083404D01*
X135021652Y-95131023D01*
X134974033Y-95226261D01*
X134974033Y-95416738D01*
X135021652Y-95511976D01*
X135069271Y-95559595D01*
X135164510Y-95607214D01*
X115924034Y-55746343D02*
X115876415Y-55793962D01*
X115733558Y-55841581D01*
X115638320Y-55841581D01*
X115495462Y-55793962D01*
X115400224Y-55698724D01*
X115352605Y-55603486D01*
X115304986Y-55413010D01*
X115304986Y-55270152D01*
X115352605Y-55079676D01*
X115400224Y-54984438D01*
X115495462Y-54889200D01*
X115638320Y-54841581D01*
X115733558Y-54841581D01*
X115876415Y-54889200D01*
X115924034Y-54936819D01*
X116257367Y-54841581D02*
X116924034Y-54841581D01*
X116495462Y-55841581D01*
X143575043Y-95054657D02*
X143622662Y-95102276D01*
X143670281Y-95245133D01*
X143670281Y-95340371D01*
X143622662Y-95483229D01*
X143527424Y-95578467D01*
X143432186Y-95626086D01*
X143241710Y-95673705D01*
X143098852Y-95673705D01*
X142908376Y-95626086D01*
X142813138Y-95578467D01*
X142717900Y-95483229D01*
X142670281Y-95340371D01*
X142670281Y-95245133D01*
X142717900Y-95102276D01*
X142765519Y-95054657D01*
X143670281Y-94102276D02*
X143670281Y-94673705D01*
X143670281Y-94387991D02*
X142670281Y-94387991D01*
X142813138Y-94483229D01*
X142908376Y-94578467D01*
X142955995Y-94673705D01*
X142765519Y-93721324D02*
X142717900Y-93673705D01*
X142670281Y-93578467D01*
X142670281Y-93340371D01*
X142717900Y-93245133D01*
X142765519Y-93197514D01*
X142860757Y-93149895D01*
X142955995Y-93149895D01*
X143098852Y-93197514D01*
X143670281Y-93768943D01*
X143670281Y-93149895D01*
X117238567Y-98251971D02*
X116905233Y-98251971D01*
X116905233Y-98775781D02*
X116905233Y-97775781D01*
X117381424Y-97775781D01*
X118095710Y-98251971D02*
X118238567Y-98299590D01*
X118286186Y-98347210D01*
X118333805Y-98442448D01*
X118333805Y-98585305D01*
X118286186Y-98680543D01*
X118238567Y-98728162D01*
X118143329Y-98775781D01*
X117762376Y-98775781D01*
X117762376Y-97775781D01*
X118095710Y-97775781D01*
X118190948Y-97823400D01*
X118238567Y-97871019D01*
X118286186Y-97966257D01*
X118286186Y-98061495D01*
X118238567Y-98156733D01*
X118190948Y-98204352D01*
X118095710Y-98251971D01*
X117762376Y-98251971D01*
X119286186Y-98775781D02*
X118714757Y-98775781D01*
X119000471Y-98775781D02*
X119000471Y-97775781D01*
X118905233Y-97918638D01*
X118809995Y-98013876D01*
X118714757Y-98061495D01*
X118159234Y-89452381D02*
X117825900Y-88976190D01*
X117587805Y-89452381D02*
X117587805Y-88452381D01*
X117968758Y-88452381D01*
X118063996Y-88500000D01*
X118111615Y-88547619D01*
X118159234Y-88642857D01*
X118159234Y-88785714D01*
X118111615Y-88880952D01*
X118063996Y-88928571D01*
X117968758Y-88976190D01*
X117587805Y-88976190D01*
X119111615Y-89452381D02*
X118540186Y-89452381D01*
X118825900Y-89452381D02*
X118825900Y-88452381D01*
X118730662Y-88595238D01*
X118635424Y-88690476D01*
X118540186Y-88738095D01*
X118159234Y-83452381D02*
X117825900Y-82976190D01*
X117587805Y-83452381D02*
X117587805Y-82452381D01*
X117968758Y-82452381D01*
X118063996Y-82500000D01*
X118111615Y-82547619D01*
X118159234Y-82642857D01*
X118159234Y-82785714D01*
X118111615Y-82880952D01*
X118063996Y-82928571D01*
X117968758Y-82976190D01*
X117587805Y-82976190D01*
X118540186Y-82547619D02*
X118587805Y-82500000D01*
X118683043Y-82452381D01*
X118921139Y-82452381D01*
X119016377Y-82500000D01*
X119063996Y-82547619D01*
X119111615Y-82642857D01*
X119111615Y-82738095D01*
X119063996Y-82880952D01*
X118492567Y-83452381D01*
X119111615Y-83452381D01*
X173048634Y-89885781D02*
X172715300Y-89409590D01*
X172477205Y-89885781D02*
X172477205Y-88885781D01*
X172858158Y-88885781D01*
X172953396Y-88933400D01*
X173001015Y-88981019D01*
X173048634Y-89076257D01*
X173048634Y-89219114D01*
X173001015Y-89314352D01*
X172953396Y-89361971D01*
X172858158Y-89409590D01*
X172477205Y-89409590D01*
X173381967Y-88885781D02*
X174001015Y-88885781D01*
X173667681Y-89266733D01*
X173810539Y-89266733D01*
X173905777Y-89314352D01*
X173953396Y-89361971D01*
X174001015Y-89457210D01*
X174001015Y-89695305D01*
X173953396Y-89790543D01*
X173905777Y-89838162D01*
X173810539Y-89885781D01*
X173524824Y-89885781D01*
X173429586Y-89838162D01*
X173381967Y-89790543D01*
X173048634Y-87345781D02*
X172715300Y-86869590D01*
X172477205Y-87345781D02*
X172477205Y-86345781D01*
X172858158Y-86345781D01*
X172953396Y-86393400D01*
X173001015Y-86441019D01*
X173048634Y-86536257D01*
X173048634Y-86679114D01*
X173001015Y-86774352D01*
X172953396Y-86821971D01*
X172858158Y-86869590D01*
X172477205Y-86869590D01*
X173905777Y-86679114D02*
X173905777Y-87345781D01*
X173667681Y-86298162D02*
X173429586Y-87012448D01*
X174048634Y-87012448D01*
X173048634Y-84805781D02*
X172715300Y-84329590D01*
X172477205Y-84805781D02*
X172477205Y-83805781D01*
X172858158Y-83805781D01*
X172953396Y-83853400D01*
X173001015Y-83901019D01*
X173048634Y-83996257D01*
X173048634Y-84139114D01*
X173001015Y-84234352D01*
X172953396Y-84281971D01*
X172858158Y-84329590D01*
X172477205Y-84329590D01*
X173953396Y-83805781D02*
X173477205Y-83805781D01*
X173429586Y-84281971D01*
X173477205Y-84234352D01*
X173572443Y-84186733D01*
X173810539Y-84186733D01*
X173905777Y-84234352D01*
X173953396Y-84281971D01*
X174001015Y-84377210D01*
X174001015Y-84615305D01*
X173953396Y-84710543D01*
X173905777Y-84758162D01*
X173810539Y-84805781D01*
X173572443Y-84805781D01*
X173477205Y-84758162D01*
X173429586Y-84710543D01*
X173048634Y-82329281D02*
X172715300Y-81853090D01*
X172477205Y-82329281D02*
X172477205Y-81329281D01*
X172858158Y-81329281D01*
X172953396Y-81376900D01*
X173001015Y-81424519D01*
X173048634Y-81519757D01*
X173048634Y-81662614D01*
X173001015Y-81757852D01*
X172953396Y-81805471D01*
X172858158Y-81853090D01*
X172477205Y-81853090D01*
X173905777Y-81329281D02*
X173715300Y-81329281D01*
X173620062Y-81376900D01*
X173572443Y-81424519D01*
X173477205Y-81567376D01*
X173429586Y-81757852D01*
X173429586Y-82138805D01*
X173477205Y-82234043D01*
X173524824Y-82281662D01*
X173620062Y-82329281D01*
X173810539Y-82329281D01*
X173905777Y-82281662D01*
X173953396Y-82234043D01*
X174001015Y-82138805D01*
X174001015Y-81900710D01*
X173953396Y-81805471D01*
X173905777Y-81757852D01*
X173810539Y-81710233D01*
X173620062Y-81710233D01*
X173524824Y-81757852D01*
X173477205Y-81805471D01*
X173429586Y-81900710D01*
X155233334Y-81552381D02*
X154900000Y-81076190D01*
X154661905Y-81552381D02*
X154661905Y-80552381D01*
X155042858Y-80552381D01*
X155138096Y-80600000D01*
X155185715Y-80647619D01*
X155233334Y-80742857D01*
X155233334Y-80885714D01*
X155185715Y-80980952D01*
X155138096Y-81028571D01*
X155042858Y-81076190D01*
X154661905Y-81076190D01*
X155566667Y-80552381D02*
X156233334Y-80552381D01*
X155804762Y-81552381D01*
X147813734Y-99025983D02*
X147766115Y-99073602D01*
X147623258Y-99121221D01*
X147528020Y-99121221D01*
X147385162Y-99073602D01*
X147289924Y-98978364D01*
X147242305Y-98883126D01*
X147194686Y-98692650D01*
X147194686Y-98549792D01*
X147242305Y-98359316D01*
X147289924Y-98264078D01*
X147385162Y-98168840D01*
X147528020Y-98121221D01*
X147623258Y-98121221D01*
X147766115Y-98168840D01*
X147813734Y-98216459D01*
X148385162Y-98549792D02*
X148289924Y-98502173D01*
X148242305Y-98454554D01*
X148194686Y-98359316D01*
X148194686Y-98311697D01*
X148242305Y-98216459D01*
X148289924Y-98168840D01*
X148385162Y-98121221D01*
X148575639Y-98121221D01*
X148670877Y-98168840D01*
X148718496Y-98216459D01*
X148766115Y-98311697D01*
X148766115Y-98359316D01*
X148718496Y-98454554D01*
X148670877Y-98502173D01*
X148575639Y-98549792D01*
X148385162Y-98549792D01*
X148289924Y-98597411D01*
X148242305Y-98645030D01*
X148194686Y-98740269D01*
X148194686Y-98930745D01*
X148242305Y-99025983D01*
X148289924Y-99073602D01*
X148385162Y-99121221D01*
X148575639Y-99121221D01*
X148670877Y-99073602D01*
X148718496Y-99025983D01*
X148766115Y-98930745D01*
X148766115Y-98740269D01*
X148718496Y-98645030D01*
X148670877Y-98597411D01*
X148575639Y-98549792D01*
X147849341Y-92643865D02*
X148658865Y-92643865D01*
X148754103Y-92596246D01*
X148801722Y-92548627D01*
X148849341Y-92453389D01*
X148849341Y-92262912D01*
X148801722Y-92167674D01*
X148754103Y-92120055D01*
X148658865Y-92072436D01*
X147849341Y-92072436D01*
X147849341Y-91691484D02*
X147849341Y-91072436D01*
X148230293Y-91405770D01*
X148230293Y-91262912D01*
X148277912Y-91167674D01*
X148325531Y-91120055D01*
X148420770Y-91072436D01*
X148658865Y-91072436D01*
X148754103Y-91120055D01*
X148801722Y-91167674D01*
X148849341Y-91262912D01*
X148849341Y-91548627D01*
X148801722Y-91643865D01*
X148754103Y-91691484D01*
M02*
