G04 #@! TF.FileFunction,Soldermask,Bot*
%FSLAX46Y46*%
G04 Gerber Fmt 4.6, Leading zero omitted, Abs format (unit mm)*
G04 Created by KiCad (PCBNEW 4.0.2-stable) date 28.02.2017 09:35:37*
%MOMM*%
G01*
G04 APERTURE LIST*
%ADD10C,0.100000*%
%ADD11R,2.432000X2.432000*%
%ADD12O,2.432000X2.432000*%
%ADD13C,1.200000*%
%ADD14R,2.127200X2.127200*%
%ADD15O,2.127200X2.127200*%
%ADD16R,2.940000X2.940000*%
%ADD17C,2.940000*%
%ADD18R,2.432000X2.127200*%
%ADD19O,2.432000X2.127200*%
G04 APERTURE END LIST*
D10*
D11*
X109300000Y-53300000D03*
D12*
X111840000Y-53300000D03*
D13*
X109664500Y-71183500D03*
X109677200Y-66802000D03*
X114173000Y-76708000D03*
D14*
X158000000Y-75000000D03*
D15*
X155460000Y-75000000D03*
X158000000Y-72460000D03*
X155460000Y-72460000D03*
X158000000Y-69920000D03*
X155460000Y-69920000D03*
X158000000Y-67380000D03*
X155460000Y-67380000D03*
X158000000Y-64840000D03*
X155460000Y-64840000D03*
X158000000Y-62300000D03*
X155460000Y-62300000D03*
X158000000Y-59760000D03*
X155460000Y-59760000D03*
X158000000Y-57220000D03*
X155460000Y-57220000D03*
D14*
X128000000Y-75000000D03*
D15*
X125460000Y-75000000D03*
X128000000Y-72460000D03*
X125460000Y-72460000D03*
X128000000Y-69920000D03*
X125460000Y-69920000D03*
X128000000Y-67380000D03*
X125460000Y-67380000D03*
X128000000Y-64840000D03*
X125460000Y-64840000D03*
X128000000Y-62300000D03*
X125460000Y-62300000D03*
X128000000Y-59760000D03*
X125460000Y-59760000D03*
X128000000Y-57220000D03*
X125460000Y-57220000D03*
D14*
X102500000Y-54770000D03*
D15*
X105040000Y-54770000D03*
X102500000Y-57310000D03*
X105040000Y-57310000D03*
X102500000Y-59850000D03*
X105040000Y-59850000D03*
X102500000Y-62390000D03*
X105040000Y-62390000D03*
X102500000Y-64930000D03*
X105040000Y-64930000D03*
X102500000Y-67470000D03*
X105040000Y-67470000D03*
X102500000Y-70010000D03*
X105040000Y-70010000D03*
X102500000Y-72550000D03*
X105040000Y-72550000D03*
X102500000Y-75090000D03*
X105040000Y-75090000D03*
X102500000Y-77630000D03*
X105040000Y-77630000D03*
X102500000Y-80170000D03*
X105040000Y-80170000D03*
D16*
X105003600Y-85585300D03*
D17*
X105003600Y-90665300D03*
D14*
X143000000Y-75000000D03*
D15*
X140460000Y-75000000D03*
X143000000Y-72460000D03*
X140460000Y-72460000D03*
X143000000Y-69920000D03*
X140460000Y-69920000D03*
X143000000Y-67380000D03*
X140460000Y-67380000D03*
X143000000Y-64840000D03*
X140460000Y-64840000D03*
X143000000Y-62300000D03*
X140460000Y-62300000D03*
X143000000Y-59760000D03*
X140460000Y-59760000D03*
X143000000Y-57220000D03*
X140460000Y-57220000D03*
D14*
X173000000Y-75000000D03*
D15*
X170460000Y-75000000D03*
X173000000Y-72460000D03*
X170460000Y-72460000D03*
X173000000Y-69920000D03*
X170460000Y-69920000D03*
X173000000Y-67380000D03*
X170460000Y-67380000D03*
X173000000Y-64840000D03*
X170460000Y-64840000D03*
X173000000Y-62300000D03*
X170460000Y-62300000D03*
X173000000Y-59760000D03*
X170460000Y-59760000D03*
X173000000Y-57220000D03*
X170460000Y-57220000D03*
D18*
X167246300Y-92468700D03*
D19*
X167246300Y-95008700D03*
X167246300Y-97548700D03*
D18*
X161861500Y-92494100D03*
D19*
X161861500Y-95034100D03*
X161861500Y-97574100D03*
M02*
