M48
;DRILL file {KiCad 4.0.2-stable} date 28.02.2017 09:35:48
;FORMAT={-:-/ absolute / metric / decimal}
FMAT,2
METRIC,TZ
T1C0.300
T2C1.016
T3C1.300
T4C3.000
%
G90
G05
M71
T1
X108.013Y-75.961
X109.593Y-75.09
X109.664Y-71.183
X109.677Y-66.802
X110.744Y-73.825
X111.354Y-79.527
X113.03Y-82.105
X114.173Y-76.708
X117.043Y-79.527
X117.348Y-51.371
X118.135Y-82.118
X119.126Y-78.486
X119.126Y-80.645
X119.55Y-62.382
X120.587Y-61.125
X121.577Y-59.85
X122.428Y-90.373
X122.555Y-58.598
X125.476Y-78.486
X125.476Y-80.645
X129.362Y-96.965
X129.362Y-98.4
X130.658Y-73.711
X130.874Y-96.977
X130.874Y-98.4
X132.334Y-57.213
X132.334Y-59.69
X132.334Y-62.293
X132.334Y-64.834
X132.334Y-67.373
X132.334Y-69.913
X132.334Y-72.453
X132.334Y-75.057
X132.334Y-78.486
X132.334Y-80.645
X139.05Y-80.65
X139.065Y-78.486
X143.317Y-96.393
X143.358Y-88.862
X145.034Y-78.486
X145.034Y-80.632
X147.383Y-57.213
X147.383Y-59.69
X147.383Y-62.293
X147.383Y-64.834
X147.383Y-67.373
X147.383Y-69.913
X147.383Y-72.453
X147.383Y-75.057
X150.101Y-90.983
X151.765Y-78.486
X151.765Y-80.607
X152.654Y-93.916
X154.722Y-86.507
X155.219Y-90.983
X157.759Y-93.904
X158.623Y-78.486
X162.433Y-57.277
X162.433Y-59.753
X162.433Y-62.357
X162.433Y-64.897
X162.433Y-67.437
X162.433Y-69.977
X162.433Y-72.517
X162.433Y-75.057
X163.246Y-81.915
X165.735Y-78.486
X171.577Y-78.486
T2
X102.5Y-54.77
X102.5Y-57.31
X102.5Y-59.85
X102.5Y-62.39
X102.5Y-64.93
X102.5Y-67.47
X102.5Y-70.01
X102.5Y-72.55
X102.5Y-75.09
X102.5Y-77.63
X102.5Y-80.17
X105.04Y-54.77
X105.04Y-57.31
X105.04Y-59.85
X105.04Y-62.39
X105.04Y-64.93
X105.04Y-67.47
X105.04Y-70.01
X105.04Y-72.55
X105.04Y-75.09
X105.04Y-77.63
X105.04Y-80.17
X109.3Y-53.3
X111.84Y-53.3
X125.46Y-57.22
X125.46Y-59.76
X125.46Y-62.3
X125.46Y-64.84
X125.46Y-67.38
X125.46Y-69.92
X125.46Y-72.46
X125.46Y-75.
X128.Y-57.22
X128.Y-59.76
X128.Y-62.3
X128.Y-64.84
X128.Y-67.38
X128.Y-69.92
X128.Y-72.46
X128.Y-75.
X140.46Y-57.22
X140.46Y-59.76
X140.46Y-62.3
X140.46Y-64.84
X140.46Y-67.38
X140.46Y-69.92
X140.46Y-72.46
X140.46Y-75.
X143.Y-57.22
X143.Y-59.76
X143.Y-62.3
X143.Y-64.84
X143.Y-67.38
X143.Y-69.92
X143.Y-72.46
X143.Y-75.
X155.46Y-57.22
X155.46Y-59.76
X155.46Y-62.3
X155.46Y-64.84
X155.46Y-67.38
X155.46Y-69.92
X155.46Y-72.46
X155.46Y-75.
X158.Y-57.22
X158.Y-59.76
X158.Y-62.3
X158.Y-64.84
X158.Y-67.38
X158.Y-69.92
X158.Y-72.46
X158.Y-75.
X161.862Y-92.494
X161.862Y-95.034
X161.862Y-97.574
X167.246Y-92.469
X167.246Y-95.009
X167.246Y-97.549
X170.46Y-57.22
X170.46Y-59.76
X170.46Y-62.3
X170.46Y-64.84
X170.46Y-67.38
X170.46Y-69.92
X170.46Y-72.46
X170.46Y-75.
X173.Y-57.22
X173.Y-59.76
X173.Y-62.3
X173.Y-64.84
X173.Y-67.38
X173.Y-69.92
X173.Y-72.46
X173.Y-75.
T3
X105.004Y-85.585
X105.004Y-90.665
T4
X102.5Y-97.5
X177.5Y-97.5
T0
M30
