M48
;DRILL file {KiCad (2015-07-22 BZR 5980)-product} date Montag, 16. Mai 2016 'u53' 14:53:36
;FORMAT={-:-/ absolute / metric / decimal}
FMAT,2
METRIC,TZ
T1C0.300
T2C0.400
T3C0.600
T4C0.701
T5C0.800
T6C0.800
T7C1.016
T8C1.524
T9C3.200
%
G90
G05
M71
T1
X151.765Y-69.215
X151.765Y-70.485
X151.765Y-71.755
X151.765Y-73.025
X151.765Y-74.295
X151.765Y-75.565
X151.765Y-76.835
X154.305Y-71.755
X154.305Y-73.025
X154.305Y-74.295
X154.305Y-75.565
X154.305Y-76.835
X154.305Y-79.375
X154.305Y-81.915
X156.845Y-71.12
X157.48Y-106.045
X157.48Y-107.315
X158.75Y-72.39
X158.75Y-73.66
X158.75Y-74.93
X159.004Y-81.915
X160.02Y-72.39
X160.02Y-73.66
X160.02Y-74.93
X161.29Y-101.6
X161.925Y-77.47
X163.83Y-101.6
X166.37Y-101.6
X167.64Y-91.44
X167.64Y-106.045
X167.64Y-107.315
X168.91Y-92.71
X169.545Y-74.93
X169.545Y-76.2
X169.545Y-77.47
X170.815Y-64.77
X170.815Y-66.04
X172.72Y-64.77
X173.99Y-69.215
X177.8Y-106.045
X177.8Y-107.315
X180.34Y-83.82
X180.34Y-86.36
X180.34Y-88.9
X180.34Y-91.44
X180.34Y-93.98
X180.34Y-96.52
X180.34Y-99.06
X180.34Y-101.6
X187.325Y-74.93
X187.96Y-106.045
X187.96Y-107.315
X189.23Y-76.28
X190.5Y-77.47
X193.04Y-77.47
X194.31Y-76.2
X194.31Y-93.98
X194.31Y-96.52
X194.31Y-99.06
X194.31Y-101.6
X195.58Y-77.47
X198.12Y-106.045
X198.12Y-107.315
X206.375Y-72.39
X208.28Y-72.37
X208.28Y-88.9
X208.28Y-91.44
X208.28Y-93.98
X208.28Y-96.52
X208.28Y-99.06
X208.28Y-101.6
X208.28Y-107.315
X210.185Y-72.39
T2
X151.765Y-88.9
X154.94Y-74.93
X157.48Y-72.39
X161.925Y-92.075
X168.275Y-85.09
X168.275Y-88.9
X169.545Y-72.39
X170.815Y-85.09
X170.815Y-89.535
X170.819Y-92.71
X171.45Y-86.36
X171.45Y-97.79
X171.45Y-99.06
X172.72Y-101.6
X177.165Y-78.105
X180.975Y-81.915
X182.245Y-83.82
X182.245Y-90.17
X183.515Y-92.71
X186.69Y-101.6
X190.5Y-69.85
X194.945Y-91.44
X196.85Y-88.9
X196.85Y-102.87
X198.12Y-86.36
X200.66Y-101.6
X212.09Y-86.36
X212.09Y-88.9
X214.63Y-101.6
T3
X151.765Y-83.82
T4
X196.85Y-66.04
X196.85Y-76.2
X212.09Y-67.31
X222.25Y-67.31
T5
X200.685Y-67.554
X200.685Y-75.174
X203.225Y-67.554
X203.225Y-75.174
X205.765Y-67.554
X205.765Y-75.174
X208.305Y-67.554
X208.305Y-75.174
T6
X165.1Y-69.949
X165.1Y-74.831
X191.77Y-66.04
X191.77Y-68.58
X191.77Y-73.66
X191.77Y-76.2
X213.36Y-69.85
X213.36Y-72.39
T7
X147.5Y-64.77
X147.5Y-67.31
X147.5Y-69.85
X147.5Y-72.39
X147.5Y-74.93
X147.5Y-77.47
X147.5Y-80.01
X147.5Y-82.55
X147.5Y-85.09
X147.5Y-87.63
X147.5Y-90.17
X150.04Y-64.77
X150.04Y-67.31
X150.04Y-69.85
X150.04Y-72.39
X150.04Y-74.93
X150.04Y-77.47
X150.04Y-80.01
X150.04Y-82.55
X150.04Y-85.09
X150.04Y-87.63
X150.04Y-90.17
X163.83Y-81.28
X165.1Y-92.71
X165.1Y-95.25
X165.1Y-97.79
X166.37Y-81.28
X168.91Y-81.28
X175.26Y-83.82
X175.26Y-86.36
X175.26Y-88.9
X175.26Y-91.44
X175.26Y-93.98
X175.26Y-96.52
X175.26Y-99.06
X175.26Y-101.6
X177.8Y-83.82
X177.8Y-86.36
X177.8Y-88.9
X177.8Y-91.44
X177.8Y-93.98
X177.8Y-96.52
X177.8Y-99.06
X177.8Y-101.6
X189.23Y-83.82
X189.23Y-86.36
X189.23Y-88.9
X189.23Y-91.44
X189.23Y-93.98
X189.23Y-96.52
X189.23Y-99.06
X189.23Y-101.6
X191.77Y-83.82
X191.77Y-86.36
X191.77Y-88.9
X191.77Y-91.44
X191.77Y-93.98
X191.77Y-96.52
X191.77Y-99.06
X191.77Y-101.6
X203.2Y-83.82
X203.2Y-86.36
X203.2Y-88.9
X203.2Y-91.44
X203.2Y-93.98
X203.2Y-96.52
X203.2Y-99.06
X203.2Y-101.6
X205.74Y-83.82
X205.74Y-86.36
X205.74Y-88.9
X205.74Y-91.44
X205.74Y-93.98
X205.74Y-96.52
X205.74Y-99.06
X205.74Y-101.6
X217.17Y-83.82
X217.17Y-86.36
X217.17Y-88.9
X217.17Y-91.44
X217.17Y-93.98
X217.17Y-96.52
X217.17Y-99.06
X217.17Y-101.6
X219.71Y-83.82
X219.71Y-86.36
X219.71Y-88.9
X219.71Y-91.44
X219.71Y-93.98
X219.71Y-96.52
X219.71Y-99.06
X219.71Y-101.6
T8
X220.345Y-71.12
X220.345Y-76.2
T9
X147.5Y-107.5
X222.5Y-62.5
X222.5Y-107.5
T0
M30
