G04 #@! TF.FileFunction,Soldermask,Top*
%FSLAX46Y46*%
G04 Gerber Fmt 4.6, Leading zero omitted, Abs format (unit mm)*
G04 Created by KiCad (PCBNEW (2015-07-22 BZR 5980)-product) date Montag, 16. Mai 2016 'u53' 14:53:15*
%MOMM*%
G01*
G04 APERTURE LIST*
%ADD10C,0.100000*%
%ADD11C,5.000000*%
%ADD12C,0.500000*%
%ADD13C,1.000000*%
%ADD14C,1.501140*%
%ADD15R,1.500000X1.250000*%
%ADD16C,1.699260*%
%ADD17R,1.699260X1.699260*%
%ADD18R,1.727200X2.032000*%
%ADD19O,1.727200X2.032000*%
%ADD20R,2.032000X1.727200*%
%ADD21O,2.032000X1.727200*%
%ADD22R,2.540000X2.540000*%
%ADD23C,2.540000*%
%ADD24R,1.727200X1.727200*%
%ADD25O,1.727200X1.727200*%
%ADD26R,1.300000X1.500000*%
%ADD27R,1.500000X0.600000*%
%ADD28O,1.600000X2.300000*%
%ADD29R,0.750000X1.200000*%
G04 APERTURE END LIST*
D10*
G36*
X157892750Y-65361344D02*
X157507781Y-65361344D01*
X157443458Y-65361354D01*
X157386619Y-65361389D01*
X157336813Y-65361455D01*
X157293585Y-65361560D01*
X157256484Y-65361712D01*
X157225057Y-65361916D01*
X157198850Y-65362181D01*
X157177412Y-65362513D01*
X157160289Y-65362921D01*
X157147028Y-65363409D01*
X157137177Y-65363987D01*
X157130283Y-65364661D01*
X157125894Y-65365438D01*
X157123556Y-65366325D01*
X157122816Y-65367330D01*
X157122813Y-65367417D01*
X157124643Y-65375906D01*
X157129524Y-65389224D01*
X157136538Y-65405321D01*
X157144771Y-65422152D01*
X157153305Y-65437669D01*
X157156806Y-65443376D01*
X157172041Y-65464047D01*
X157189578Y-65482810D01*
X157207364Y-65497622D01*
X157217904Y-65504075D01*
X157223866Y-65506940D01*
X157230036Y-65509443D01*
X157236968Y-65511607D01*
X157245214Y-65513457D01*
X157255327Y-65515018D01*
X157267860Y-65516313D01*
X157283366Y-65517369D01*
X157302398Y-65518208D01*
X157325509Y-65518856D01*
X157353252Y-65519336D01*
X157386180Y-65519675D01*
X157424846Y-65519895D01*
X157469802Y-65520022D01*
X157521602Y-65520080D01*
X157579414Y-65520094D01*
X157884813Y-65520094D01*
X157884813Y-65684797D01*
X157884813Y-65849500D01*
X157542508Y-65848979D01*
X157490403Y-65848864D01*
X157440102Y-65848686D01*
X157392237Y-65848450D01*
X157347442Y-65848163D01*
X157306348Y-65847830D01*
X157269588Y-65847459D01*
X157237795Y-65847054D01*
X157211601Y-65846623D01*
X157191637Y-65846172D01*
X157178538Y-65845706D01*
X157173800Y-65845375D01*
X157118381Y-65834991D01*
X157065378Y-65817184D01*
X157015070Y-65792176D01*
X156967736Y-65760187D01*
X156923652Y-65721439D01*
X156883099Y-65676153D01*
X156846353Y-65624550D01*
X156813694Y-65566851D01*
X156807451Y-65554128D01*
X156783095Y-65497809D01*
X156763767Y-65440672D01*
X156749151Y-65381317D01*
X156738930Y-65318347D01*
X156732789Y-65250363D01*
X156731230Y-65216485D01*
X156731225Y-65138101D01*
X156736760Y-65064667D01*
X156748010Y-64995285D01*
X156765146Y-64929056D01*
X156788343Y-64865082D01*
X156807097Y-64823578D01*
X156839010Y-64765499D01*
X156874989Y-64713668D01*
X156914811Y-64668300D01*
X156958255Y-64629608D01*
X157005097Y-64597804D01*
X157055116Y-64573104D01*
X157076288Y-64565149D01*
X157087246Y-64561357D01*
X157097031Y-64558012D01*
X157106186Y-64555082D01*
X157115257Y-64552538D01*
X157124786Y-64550350D01*
X157135318Y-64548490D01*
X157147398Y-64546926D01*
X157161568Y-64545630D01*
X157178374Y-64544572D01*
X157198359Y-64543722D01*
X157222067Y-64543051D01*
X157250043Y-64542528D01*
X157282831Y-64542125D01*
X157320973Y-64541811D01*
X157365016Y-64541558D01*
X157415502Y-64541334D01*
X157472976Y-64541111D01*
X157520680Y-64540928D01*
X157884813Y-64539500D01*
X157884813Y-64708237D01*
X157884813Y-64876975D01*
X157564336Y-64878058D01*
X157243859Y-64879141D01*
X157222558Y-64890939D01*
X157207898Y-64900774D01*
X157192655Y-64913636D01*
X157183794Y-64922689D01*
X157170161Y-64940729D01*
X157155856Y-64963818D01*
X157142319Y-64989350D01*
X157130984Y-65014723D01*
X157126756Y-65026058D01*
X157119271Y-65047813D01*
X157506011Y-65047813D01*
X157892750Y-65047813D01*
X157892750Y-65204578D01*
X157892750Y-65361344D01*
X157892750Y-65361344D01*
X157892750Y-65361344D01*
G37*
X157892750Y-65361344D02*
X157507781Y-65361344D01*
X157443458Y-65361354D01*
X157386619Y-65361389D01*
X157336813Y-65361455D01*
X157293585Y-65361560D01*
X157256484Y-65361712D01*
X157225057Y-65361916D01*
X157198850Y-65362181D01*
X157177412Y-65362513D01*
X157160289Y-65362921D01*
X157147028Y-65363409D01*
X157137177Y-65363987D01*
X157130283Y-65364661D01*
X157125894Y-65365438D01*
X157123556Y-65366325D01*
X157122816Y-65367330D01*
X157122813Y-65367417D01*
X157124643Y-65375906D01*
X157129524Y-65389224D01*
X157136538Y-65405321D01*
X157144771Y-65422152D01*
X157153305Y-65437669D01*
X157156806Y-65443376D01*
X157172041Y-65464047D01*
X157189578Y-65482810D01*
X157207364Y-65497622D01*
X157217904Y-65504075D01*
X157223866Y-65506940D01*
X157230036Y-65509443D01*
X157236968Y-65511607D01*
X157245214Y-65513457D01*
X157255327Y-65515018D01*
X157267860Y-65516313D01*
X157283366Y-65517369D01*
X157302398Y-65518208D01*
X157325509Y-65518856D01*
X157353252Y-65519336D01*
X157386180Y-65519675D01*
X157424846Y-65519895D01*
X157469802Y-65520022D01*
X157521602Y-65520080D01*
X157579414Y-65520094D01*
X157884813Y-65520094D01*
X157884813Y-65684797D01*
X157884813Y-65849500D01*
X157542508Y-65848979D01*
X157490403Y-65848864D01*
X157440102Y-65848686D01*
X157392237Y-65848450D01*
X157347442Y-65848163D01*
X157306348Y-65847830D01*
X157269588Y-65847459D01*
X157237795Y-65847054D01*
X157211601Y-65846623D01*
X157191637Y-65846172D01*
X157178538Y-65845706D01*
X157173800Y-65845375D01*
X157118381Y-65834991D01*
X157065378Y-65817184D01*
X157015070Y-65792176D01*
X156967736Y-65760187D01*
X156923652Y-65721439D01*
X156883099Y-65676153D01*
X156846353Y-65624550D01*
X156813694Y-65566851D01*
X156807451Y-65554128D01*
X156783095Y-65497809D01*
X156763767Y-65440672D01*
X156749151Y-65381317D01*
X156738930Y-65318347D01*
X156732789Y-65250363D01*
X156731230Y-65216485D01*
X156731225Y-65138101D01*
X156736760Y-65064667D01*
X156748010Y-64995285D01*
X156765146Y-64929056D01*
X156788343Y-64865082D01*
X156807097Y-64823578D01*
X156839010Y-64765499D01*
X156874989Y-64713668D01*
X156914811Y-64668300D01*
X156958255Y-64629608D01*
X157005097Y-64597804D01*
X157055116Y-64573104D01*
X157076288Y-64565149D01*
X157087246Y-64561357D01*
X157097031Y-64558012D01*
X157106186Y-64555082D01*
X157115257Y-64552538D01*
X157124786Y-64550350D01*
X157135318Y-64548490D01*
X157147398Y-64546926D01*
X157161568Y-64545630D01*
X157178374Y-64544572D01*
X157198359Y-64543722D01*
X157222067Y-64543051D01*
X157250043Y-64542528D01*
X157282831Y-64542125D01*
X157320973Y-64541811D01*
X157365016Y-64541558D01*
X157415502Y-64541334D01*
X157472976Y-64541111D01*
X157520680Y-64540928D01*
X157884813Y-64539500D01*
X157884813Y-64708237D01*
X157884813Y-64876975D01*
X157564336Y-64878058D01*
X157243859Y-64879141D01*
X157222558Y-64890939D01*
X157207898Y-64900774D01*
X157192655Y-64913636D01*
X157183794Y-64922689D01*
X157170161Y-64940729D01*
X157155856Y-64963818D01*
X157142319Y-64989350D01*
X157130984Y-65014723D01*
X157126756Y-65026058D01*
X157119271Y-65047813D01*
X157506011Y-65047813D01*
X157892750Y-65047813D01*
X157892750Y-65204578D01*
X157892750Y-65361344D01*
X157892750Y-65361344D01*
G36*
X155332906Y-64912875D02*
X155292227Y-64913211D01*
X155275885Y-64913442D01*
X155253482Y-64913894D01*
X155226888Y-64914524D01*
X155197976Y-64915286D01*
X155168615Y-64916134D01*
X155160266Y-64916391D01*
X155130939Y-64917335D01*
X155108319Y-64918206D01*
X155091176Y-64919153D01*
X155078282Y-64920327D01*
X155068408Y-64921878D01*
X155060327Y-64923954D01*
X155052809Y-64926706D01*
X155044626Y-64930285D01*
X155043979Y-64930578D01*
X155018409Y-64946098D01*
X154996731Y-64967037D01*
X154980599Y-64991659D01*
X154976219Y-65001747D01*
X154973408Y-65009390D01*
X154970920Y-65016740D01*
X154968740Y-65024298D01*
X154966850Y-65032567D01*
X154965236Y-65042049D01*
X154963881Y-65053248D01*
X154962770Y-65066665D01*
X154961886Y-65082803D01*
X154961214Y-65102164D01*
X154960738Y-65125251D01*
X154960442Y-65152565D01*
X154960310Y-65184611D01*
X154960326Y-65221889D01*
X154960474Y-65264903D01*
X154960739Y-65314155D01*
X154961105Y-65370148D01*
X154961555Y-65433383D01*
X154961746Y-65459571D01*
X154964569Y-65845532D01*
X154775675Y-65845532D01*
X154586781Y-65845532D01*
X154586805Y-65384164D01*
X154586814Y-65310998D01*
X154586844Y-65245302D01*
X154586910Y-65186611D01*
X154587028Y-65134458D01*
X154587212Y-65088378D01*
X154587479Y-65047903D01*
X154587843Y-65012567D01*
X154588319Y-64981904D01*
X154588924Y-64955447D01*
X154589673Y-64932730D01*
X154590580Y-64913287D01*
X154591661Y-64896652D01*
X154592931Y-64882357D01*
X154594406Y-64869936D01*
X154596101Y-64858924D01*
X154598032Y-64848854D01*
X154600213Y-64839259D01*
X154602661Y-64829672D01*
X154605350Y-64819772D01*
X154623596Y-64767257D01*
X154647928Y-64719414D01*
X154677983Y-64676604D01*
X154713400Y-64639191D01*
X154753817Y-64607538D01*
X154798872Y-64582007D01*
X154848203Y-64562961D01*
X154866578Y-64557852D01*
X154879750Y-64554748D01*
X154893028Y-64552133D01*
X154907209Y-64549966D01*
X154923092Y-64548206D01*
X154941472Y-64546813D01*
X154963147Y-64545745D01*
X154988915Y-64544962D01*
X155019572Y-64544422D01*
X155055915Y-64544086D01*
X155098742Y-64543911D01*
X155139430Y-64543860D01*
X155332906Y-64543782D01*
X155332906Y-64728328D01*
X155332906Y-64912875D01*
X155332906Y-64912875D01*
X155332906Y-64912875D01*
G37*
X155332906Y-64912875D02*
X155292227Y-64913211D01*
X155275885Y-64913442D01*
X155253482Y-64913894D01*
X155226888Y-64914524D01*
X155197976Y-64915286D01*
X155168615Y-64916134D01*
X155160266Y-64916391D01*
X155130939Y-64917335D01*
X155108319Y-64918206D01*
X155091176Y-64919153D01*
X155078282Y-64920327D01*
X155068408Y-64921878D01*
X155060327Y-64923954D01*
X155052809Y-64926706D01*
X155044626Y-64930285D01*
X155043979Y-64930578D01*
X155018409Y-64946098D01*
X154996731Y-64967037D01*
X154980599Y-64991659D01*
X154976219Y-65001747D01*
X154973408Y-65009390D01*
X154970920Y-65016740D01*
X154968740Y-65024298D01*
X154966850Y-65032567D01*
X154965236Y-65042049D01*
X154963881Y-65053248D01*
X154962770Y-65066665D01*
X154961886Y-65082803D01*
X154961214Y-65102164D01*
X154960738Y-65125251D01*
X154960442Y-65152565D01*
X154960310Y-65184611D01*
X154960326Y-65221889D01*
X154960474Y-65264903D01*
X154960739Y-65314155D01*
X154961105Y-65370148D01*
X154961555Y-65433383D01*
X154961746Y-65459571D01*
X154964569Y-65845532D01*
X154775675Y-65845532D01*
X154586781Y-65845532D01*
X154586805Y-65384164D01*
X154586814Y-65310998D01*
X154586844Y-65245302D01*
X154586910Y-65186611D01*
X154587028Y-65134458D01*
X154587212Y-65088378D01*
X154587479Y-65047903D01*
X154587843Y-65012567D01*
X154588319Y-64981904D01*
X154588924Y-64955447D01*
X154589673Y-64932730D01*
X154590580Y-64913287D01*
X154591661Y-64896652D01*
X154592931Y-64882357D01*
X154594406Y-64869936D01*
X154596101Y-64858924D01*
X154598032Y-64848854D01*
X154600213Y-64839259D01*
X154602661Y-64829672D01*
X154605350Y-64819772D01*
X154623596Y-64767257D01*
X154647928Y-64719414D01*
X154677983Y-64676604D01*
X154713400Y-64639191D01*
X154753817Y-64607538D01*
X154798872Y-64582007D01*
X154848203Y-64562961D01*
X154866578Y-64557852D01*
X154879750Y-64554748D01*
X154893028Y-64552133D01*
X154907209Y-64549966D01*
X154923092Y-64548206D01*
X154941472Y-64546813D01*
X154963147Y-64545745D01*
X154988915Y-64544962D01*
X155019572Y-64544422D01*
X155055915Y-64544086D01*
X155098742Y-64543911D01*
X155139430Y-64543860D01*
X155332906Y-64543782D01*
X155332906Y-64728328D01*
X155332906Y-64912875D01*
X155332906Y-64912875D01*
G36*
X156575125Y-65361344D02*
X156189889Y-65361344D01*
X155804653Y-65361344D01*
X155807278Y-65370274D01*
X155810134Y-65377803D01*
X155815506Y-65390250D01*
X155822426Y-65405401D01*
X155825413Y-65411728D01*
X155841092Y-65439306D01*
X155860311Y-65464713D01*
X155881494Y-65486157D01*
X155903062Y-65501841D01*
X155906087Y-65503509D01*
X155926234Y-65514141D01*
X156248695Y-65515223D01*
X156571156Y-65516306D01*
X156571156Y-65680919D01*
X156571156Y-65845532D01*
X156214961Y-65845250D01*
X156153409Y-65845194D01*
X156099258Y-65845123D01*
X156051973Y-65845027D01*
X156011018Y-65844893D01*
X155975857Y-65844712D01*
X155945954Y-65844472D01*
X155920773Y-65844162D01*
X155899778Y-65843772D01*
X155882434Y-65843291D01*
X155868205Y-65842707D01*
X155856555Y-65842010D01*
X155846947Y-65841188D01*
X155838846Y-65840232D01*
X155831717Y-65839129D01*
X155825022Y-65837870D01*
X155821988Y-65837245D01*
X155766691Y-65821733D01*
X155714828Y-65799127D01*
X155666351Y-65769394D01*
X155621218Y-65732502D01*
X155579382Y-65688417D01*
X155540799Y-65637106D01*
X155534292Y-65627250D01*
X155500019Y-65568416D01*
X155471862Y-65506984D01*
X155449677Y-65442384D01*
X155433323Y-65374043D01*
X155422657Y-65301390D01*
X155417539Y-65223855D01*
X155417364Y-65156953D01*
X155420210Y-65093980D01*
X155425918Y-65037010D01*
X155434827Y-64984518D01*
X155447276Y-64934983D01*
X155463603Y-64886880D01*
X155484145Y-64838688D01*
X155491379Y-64823578D01*
X155523794Y-64764385D01*
X155559587Y-64712294D01*
X155598968Y-64667131D01*
X155642148Y-64628718D01*
X155689337Y-64596882D01*
X155740746Y-64571445D01*
X155796585Y-64552233D01*
X155825145Y-64545144D01*
X155831072Y-64544004D01*
X155838195Y-64542993D01*
X155847026Y-64542101D01*
X155858078Y-64541317D01*
X155871864Y-64540629D01*
X155888897Y-64540028D01*
X155909691Y-64539501D01*
X155934758Y-64539040D01*
X155964612Y-64538631D01*
X155999765Y-64538266D01*
X156040731Y-64537933D01*
X156088022Y-64537621D01*
X156142152Y-64537319D01*
X156203633Y-64537018D01*
X156212977Y-64536974D01*
X156571156Y-64535317D01*
X156571157Y-64705245D01*
X156571158Y-64875172D01*
X156254649Y-64875172D01*
X155938141Y-64875172D01*
X155915438Y-64885813D01*
X155890909Y-64901102D01*
X155867780Y-64922789D01*
X155847628Y-64949333D01*
X155843579Y-64955964D01*
X155836676Y-64968724D01*
X155828919Y-64984527D01*
X155821118Y-65001522D01*
X155814086Y-65017858D01*
X155808633Y-65031684D01*
X155805571Y-65041149D01*
X155805188Y-65043568D01*
X155808120Y-65044348D01*
X155817050Y-65045043D01*
X155832173Y-65045654D01*
X155853686Y-65046185D01*
X155881785Y-65046637D01*
X155916667Y-65047012D01*
X155958529Y-65047312D01*
X156007566Y-65047540D01*
X156063976Y-65047698D01*
X156127956Y-65047788D01*
X156190156Y-65047813D01*
X156575125Y-65047813D01*
X156575125Y-65204578D01*
X156575125Y-65361344D01*
X156575125Y-65361344D01*
X156575125Y-65361344D01*
G37*
X156575125Y-65361344D02*
X156189889Y-65361344D01*
X155804653Y-65361344D01*
X155807278Y-65370274D01*
X155810134Y-65377803D01*
X155815506Y-65390250D01*
X155822426Y-65405401D01*
X155825413Y-65411728D01*
X155841092Y-65439306D01*
X155860311Y-65464713D01*
X155881494Y-65486157D01*
X155903062Y-65501841D01*
X155906087Y-65503509D01*
X155926234Y-65514141D01*
X156248695Y-65515223D01*
X156571156Y-65516306D01*
X156571156Y-65680919D01*
X156571156Y-65845532D01*
X156214961Y-65845250D01*
X156153409Y-65845194D01*
X156099258Y-65845123D01*
X156051973Y-65845027D01*
X156011018Y-65844893D01*
X155975857Y-65844712D01*
X155945954Y-65844472D01*
X155920773Y-65844162D01*
X155899778Y-65843772D01*
X155882434Y-65843291D01*
X155868205Y-65842707D01*
X155856555Y-65842010D01*
X155846947Y-65841188D01*
X155838846Y-65840232D01*
X155831717Y-65839129D01*
X155825022Y-65837870D01*
X155821988Y-65837245D01*
X155766691Y-65821733D01*
X155714828Y-65799127D01*
X155666351Y-65769394D01*
X155621218Y-65732502D01*
X155579382Y-65688417D01*
X155540799Y-65637106D01*
X155534292Y-65627250D01*
X155500019Y-65568416D01*
X155471862Y-65506984D01*
X155449677Y-65442384D01*
X155433323Y-65374043D01*
X155422657Y-65301390D01*
X155417539Y-65223855D01*
X155417364Y-65156953D01*
X155420210Y-65093980D01*
X155425918Y-65037010D01*
X155434827Y-64984518D01*
X155447276Y-64934983D01*
X155463603Y-64886880D01*
X155484145Y-64838688D01*
X155491379Y-64823578D01*
X155523794Y-64764385D01*
X155559587Y-64712294D01*
X155598968Y-64667131D01*
X155642148Y-64628718D01*
X155689337Y-64596882D01*
X155740746Y-64571445D01*
X155796585Y-64552233D01*
X155825145Y-64545144D01*
X155831072Y-64544004D01*
X155838195Y-64542993D01*
X155847026Y-64542101D01*
X155858078Y-64541317D01*
X155871864Y-64540629D01*
X155888897Y-64540028D01*
X155909691Y-64539501D01*
X155934758Y-64539040D01*
X155964612Y-64538631D01*
X155999765Y-64538266D01*
X156040731Y-64537933D01*
X156088022Y-64537621D01*
X156142152Y-64537319D01*
X156203633Y-64537018D01*
X156212977Y-64536974D01*
X156571156Y-64535317D01*
X156571157Y-64705245D01*
X156571158Y-64875172D01*
X156254649Y-64875172D01*
X155938141Y-64875172D01*
X155915438Y-64885813D01*
X155890909Y-64901102D01*
X155867780Y-64922789D01*
X155847628Y-64949333D01*
X155843579Y-64955964D01*
X155836676Y-64968724D01*
X155828919Y-64984527D01*
X155821118Y-65001522D01*
X155814086Y-65017858D01*
X155808633Y-65031684D01*
X155805571Y-65041149D01*
X155805188Y-65043568D01*
X155808120Y-65044348D01*
X155817050Y-65045043D01*
X155832173Y-65045654D01*
X155853686Y-65046185D01*
X155881785Y-65046637D01*
X155916667Y-65047012D01*
X155958529Y-65047312D01*
X156007566Y-65047540D01*
X156063976Y-65047698D01*
X156127956Y-65047788D01*
X156190156Y-65047813D01*
X156575125Y-65047813D01*
X156575125Y-65204578D01*
X156575125Y-65361344D01*
X156575125Y-65361344D01*
G36*
X157892750Y-64242107D02*
X156020492Y-64243124D01*
X154148234Y-64244141D01*
X154114325Y-64256285D01*
X154076678Y-64272719D01*
X154044338Y-64293545D01*
X154015299Y-64320071D01*
X154013650Y-64321838D01*
X153987009Y-64356230D01*
X153965487Y-64395847D01*
X153949513Y-64439514D01*
X153939512Y-64486053D01*
X153935911Y-64534290D01*
X153935906Y-64536131D01*
X153935906Y-64559657D01*
X154193875Y-64559657D01*
X154451844Y-64559657D01*
X154451844Y-64746188D01*
X154451844Y-64932719D01*
X154193875Y-64932719D01*
X153935906Y-64932719D01*
X153935906Y-65387141D01*
X153935906Y-65841563D01*
X153711491Y-65841563D01*
X153487077Y-65841563D01*
X153488515Y-65249227D01*
X153488714Y-65166939D01*
X153488903Y-65092142D01*
X153489095Y-65024390D01*
X153489303Y-64963237D01*
X153489540Y-64908235D01*
X153489820Y-64858938D01*
X153490155Y-64814901D01*
X153490560Y-64775677D01*
X153491048Y-64740819D01*
X153491631Y-64709881D01*
X153492323Y-64682416D01*
X153493138Y-64657979D01*
X153494088Y-64636122D01*
X153495188Y-64616400D01*
X153496449Y-64598366D01*
X153497886Y-64581574D01*
X153499513Y-64565576D01*
X153501341Y-64549928D01*
X153503384Y-64534182D01*
X153505657Y-64517892D01*
X153508171Y-64500612D01*
X153510941Y-64481895D01*
X153511474Y-64478297D01*
X153526656Y-64393474D01*
X153546247Y-64314843D01*
X153570433Y-64241874D01*
X153599405Y-64174035D01*
X153633349Y-64110796D01*
X153653045Y-64079528D01*
X153673695Y-64051069D01*
X153698489Y-64021160D01*
X153725799Y-63991494D01*
X153753991Y-63963762D01*
X153781437Y-63939654D01*
X153805109Y-63921803D01*
X153861315Y-63888384D01*
X153922540Y-63860833D01*
X153988263Y-63839330D01*
X154057967Y-63824058D01*
X154103430Y-63817745D01*
X154110083Y-63817375D01*
X154123164Y-63817024D01*
X154142742Y-63816690D01*
X154168885Y-63816374D01*
X154201662Y-63816076D01*
X154241140Y-63815795D01*
X154287389Y-63815531D01*
X154340476Y-63815285D01*
X154400469Y-63815055D01*
X154467438Y-63814842D01*
X154541450Y-63814645D01*
X154622574Y-63814466D01*
X154710879Y-63814302D01*
X154806431Y-63814155D01*
X154909301Y-63814023D01*
X155019556Y-63813908D01*
X155137264Y-63813808D01*
X155262494Y-63813724D01*
X155395315Y-63813655D01*
X155535794Y-63813602D01*
X155684000Y-63813563D01*
X155840002Y-63813540D01*
X156003867Y-63813532D01*
X156017359Y-63813532D01*
X157892750Y-63813532D01*
X157892750Y-64027819D01*
X157892750Y-64242107D01*
X157892750Y-64242107D01*
X157892750Y-64242107D01*
G37*
X157892750Y-64242107D02*
X156020492Y-64243124D01*
X154148234Y-64244141D01*
X154114325Y-64256285D01*
X154076678Y-64272719D01*
X154044338Y-64293545D01*
X154015299Y-64320071D01*
X154013650Y-64321838D01*
X153987009Y-64356230D01*
X153965487Y-64395847D01*
X153949513Y-64439514D01*
X153939512Y-64486053D01*
X153935911Y-64534290D01*
X153935906Y-64536131D01*
X153935906Y-64559657D01*
X154193875Y-64559657D01*
X154451844Y-64559657D01*
X154451844Y-64746188D01*
X154451844Y-64932719D01*
X154193875Y-64932719D01*
X153935906Y-64932719D01*
X153935906Y-65387141D01*
X153935906Y-65841563D01*
X153711491Y-65841563D01*
X153487077Y-65841563D01*
X153488515Y-65249227D01*
X153488714Y-65166939D01*
X153488903Y-65092142D01*
X153489095Y-65024390D01*
X153489303Y-64963237D01*
X153489540Y-64908235D01*
X153489820Y-64858938D01*
X153490155Y-64814901D01*
X153490560Y-64775677D01*
X153491048Y-64740819D01*
X153491631Y-64709881D01*
X153492323Y-64682416D01*
X153493138Y-64657979D01*
X153494088Y-64636122D01*
X153495188Y-64616400D01*
X153496449Y-64598366D01*
X153497886Y-64581574D01*
X153499513Y-64565576D01*
X153501341Y-64549928D01*
X153503384Y-64534182D01*
X153505657Y-64517892D01*
X153508171Y-64500612D01*
X153510941Y-64481895D01*
X153511474Y-64478297D01*
X153526656Y-64393474D01*
X153546247Y-64314843D01*
X153570433Y-64241874D01*
X153599405Y-64174035D01*
X153633349Y-64110796D01*
X153653045Y-64079528D01*
X153673695Y-64051069D01*
X153698489Y-64021160D01*
X153725799Y-63991494D01*
X153753991Y-63963762D01*
X153781437Y-63939654D01*
X153805109Y-63921803D01*
X153861315Y-63888384D01*
X153922540Y-63860833D01*
X153988263Y-63839330D01*
X154057967Y-63824058D01*
X154103430Y-63817745D01*
X154110083Y-63817375D01*
X154123164Y-63817024D01*
X154142742Y-63816690D01*
X154168885Y-63816374D01*
X154201662Y-63816076D01*
X154241140Y-63815795D01*
X154287389Y-63815531D01*
X154340476Y-63815285D01*
X154400469Y-63815055D01*
X154467438Y-63814842D01*
X154541450Y-63814645D01*
X154622574Y-63814466D01*
X154710879Y-63814302D01*
X154806431Y-63814155D01*
X154909301Y-63814023D01*
X155019556Y-63813908D01*
X155137264Y-63813808D01*
X155262494Y-63813724D01*
X155395315Y-63813655D01*
X155535794Y-63813602D01*
X155684000Y-63813563D01*
X155840002Y-63813540D01*
X156003867Y-63813532D01*
X156017359Y-63813532D01*
X157892750Y-63813532D01*
X157892750Y-64027819D01*
X157892750Y-64242107D01*
X157892750Y-64242107D01*
G36*
X159799675Y-64849408D02*
X159799212Y-64890105D01*
X159798267Y-64929341D01*
X159796849Y-64965552D01*
X159794967Y-64997174D01*
X159792629Y-65022645D01*
X159792468Y-65024000D01*
X159777495Y-65121050D01*
X159756714Y-65213018D01*
X159730162Y-65299771D01*
X159697878Y-65381173D01*
X159681052Y-65416907D01*
X159641238Y-65489975D01*
X159597610Y-65556410D01*
X159550277Y-65616120D01*
X159499348Y-65669011D01*
X159444933Y-65714990D01*
X159387140Y-65753966D01*
X159326079Y-65785845D01*
X159261859Y-65810533D01*
X159198308Y-65827185D01*
X159188213Y-65829200D01*
X159178182Y-65831016D01*
X159167774Y-65832645D01*
X159156548Y-65834097D01*
X159144064Y-65835382D01*
X159129879Y-65836510D01*
X159113554Y-65837490D01*
X159094647Y-65838335D01*
X159072717Y-65839053D01*
X159047324Y-65839655D01*
X159018026Y-65840151D01*
X158984383Y-65840551D01*
X158945954Y-65840866D01*
X158902297Y-65841105D01*
X158852971Y-65841279D01*
X158797537Y-65841399D01*
X158735552Y-65841473D01*
X158666576Y-65841513D01*
X158590168Y-65841529D01*
X158578352Y-65841530D01*
X158059438Y-65841563D01*
X158059438Y-65621297D01*
X158059438Y-65401032D01*
X158522789Y-65401002D01*
X158603305Y-65400959D01*
X158676945Y-65400844D01*
X158743600Y-65400657D01*
X158803162Y-65400399D01*
X158855522Y-65400071D01*
X158900573Y-65399674D01*
X158938206Y-65399209D01*
X158968312Y-65398676D01*
X158990783Y-65398076D01*
X159005510Y-65397412D01*
X159011583Y-65396843D01*
X159050721Y-65387738D01*
X159085686Y-65373399D01*
X159118148Y-65352958D01*
X159149776Y-65325545D01*
X159151337Y-65324004D01*
X159184851Y-65285673D01*
X159215267Y-65240509D01*
X159242334Y-65189091D01*
X159265800Y-65131995D01*
X159285414Y-65069799D01*
X159300926Y-65003079D01*
X159307648Y-64964469D01*
X159310808Y-64938481D01*
X159313359Y-64906548D01*
X159315252Y-64870646D01*
X159316439Y-64832748D01*
X159316873Y-64794829D01*
X159316503Y-64758861D01*
X159315284Y-64726819D01*
X159313918Y-64707998D01*
X159305444Y-64640181D01*
X159292845Y-64577788D01*
X159275689Y-64519217D01*
X159253544Y-64462867D01*
X159240276Y-64434641D01*
X159214676Y-64388236D01*
X159187284Y-64349069D01*
X159157542Y-64316536D01*
X159124894Y-64290034D01*
X159088782Y-64268961D01*
X159085942Y-64267594D01*
X159078246Y-64263934D01*
X159071092Y-64260647D01*
X159064032Y-64257713D01*
X159056619Y-64255112D01*
X159048408Y-64252824D01*
X159038951Y-64250829D01*
X159027803Y-64249105D01*
X159014516Y-64247634D01*
X158998645Y-64246395D01*
X158979741Y-64245368D01*
X158957360Y-64244532D01*
X158931055Y-64243868D01*
X158900378Y-64243354D01*
X158864884Y-64242972D01*
X158824125Y-64242700D01*
X158777656Y-64242519D01*
X158725030Y-64242408D01*
X158665800Y-64242347D01*
X158599519Y-64242316D01*
X158526758Y-64242295D01*
X158059438Y-64242157D01*
X158059438Y-64027748D01*
X158059438Y-63813341D01*
X158600180Y-63814434D01*
X159140922Y-63815529D01*
X159183647Y-63824607D01*
X159251963Y-63842916D01*
X159316579Y-63868059D01*
X159377593Y-63900110D01*
X159435104Y-63939143D01*
X159489210Y-63985231D01*
X159540009Y-64038447D01*
X159587599Y-64098866D01*
X159625021Y-64155002D01*
X159666049Y-64227279D01*
X159701450Y-64302737D01*
X159731427Y-64382002D01*
X159756184Y-64465701D01*
X159775923Y-64554460D01*
X159790847Y-64648906D01*
X159794446Y-64678719D01*
X159796528Y-64703272D01*
X159798083Y-64734181D01*
X159799120Y-64769882D01*
X159799648Y-64808812D01*
X159799675Y-64849408D01*
X159799675Y-64849408D01*
X159799675Y-64849408D01*
G37*
X159799675Y-64849408D02*
X159799212Y-64890105D01*
X159798267Y-64929341D01*
X159796849Y-64965552D01*
X159794967Y-64997174D01*
X159792629Y-65022645D01*
X159792468Y-65024000D01*
X159777495Y-65121050D01*
X159756714Y-65213018D01*
X159730162Y-65299771D01*
X159697878Y-65381173D01*
X159681052Y-65416907D01*
X159641238Y-65489975D01*
X159597610Y-65556410D01*
X159550277Y-65616120D01*
X159499348Y-65669011D01*
X159444933Y-65714990D01*
X159387140Y-65753966D01*
X159326079Y-65785845D01*
X159261859Y-65810533D01*
X159198308Y-65827185D01*
X159188213Y-65829200D01*
X159178182Y-65831016D01*
X159167774Y-65832645D01*
X159156548Y-65834097D01*
X159144064Y-65835382D01*
X159129879Y-65836510D01*
X159113554Y-65837490D01*
X159094647Y-65838335D01*
X159072717Y-65839053D01*
X159047324Y-65839655D01*
X159018026Y-65840151D01*
X158984383Y-65840551D01*
X158945954Y-65840866D01*
X158902297Y-65841105D01*
X158852971Y-65841279D01*
X158797537Y-65841399D01*
X158735552Y-65841473D01*
X158666576Y-65841513D01*
X158590168Y-65841529D01*
X158578352Y-65841530D01*
X158059438Y-65841563D01*
X158059438Y-65621297D01*
X158059438Y-65401032D01*
X158522789Y-65401002D01*
X158603305Y-65400959D01*
X158676945Y-65400844D01*
X158743600Y-65400657D01*
X158803162Y-65400399D01*
X158855522Y-65400071D01*
X158900573Y-65399674D01*
X158938206Y-65399209D01*
X158968312Y-65398676D01*
X158990783Y-65398076D01*
X159005510Y-65397412D01*
X159011583Y-65396843D01*
X159050721Y-65387738D01*
X159085686Y-65373399D01*
X159118148Y-65352958D01*
X159149776Y-65325545D01*
X159151337Y-65324004D01*
X159184851Y-65285673D01*
X159215267Y-65240509D01*
X159242334Y-65189091D01*
X159265800Y-65131995D01*
X159285414Y-65069799D01*
X159300926Y-65003079D01*
X159307648Y-64964469D01*
X159310808Y-64938481D01*
X159313359Y-64906548D01*
X159315252Y-64870646D01*
X159316439Y-64832748D01*
X159316873Y-64794829D01*
X159316503Y-64758861D01*
X159315284Y-64726819D01*
X159313918Y-64707998D01*
X159305444Y-64640181D01*
X159292845Y-64577788D01*
X159275689Y-64519217D01*
X159253544Y-64462867D01*
X159240276Y-64434641D01*
X159214676Y-64388236D01*
X159187284Y-64349069D01*
X159157542Y-64316536D01*
X159124894Y-64290034D01*
X159088782Y-64268961D01*
X159085942Y-64267594D01*
X159078246Y-64263934D01*
X159071092Y-64260647D01*
X159064032Y-64257713D01*
X159056619Y-64255112D01*
X159048408Y-64252824D01*
X159038951Y-64250829D01*
X159027803Y-64249105D01*
X159014516Y-64247634D01*
X158998645Y-64246395D01*
X158979741Y-64245368D01*
X158957360Y-64244532D01*
X158931055Y-64243868D01*
X158900378Y-64243354D01*
X158864884Y-64242972D01*
X158824125Y-64242700D01*
X158777656Y-64242519D01*
X158725030Y-64242408D01*
X158665800Y-64242347D01*
X158599519Y-64242316D01*
X158526758Y-64242295D01*
X158059438Y-64242157D01*
X158059438Y-64027748D01*
X158059438Y-63813341D01*
X158600180Y-63814434D01*
X159140922Y-63815529D01*
X159183647Y-63824607D01*
X159251963Y-63842916D01*
X159316579Y-63868059D01*
X159377593Y-63900110D01*
X159435104Y-63939143D01*
X159489210Y-63985231D01*
X159540009Y-64038447D01*
X159587599Y-64098866D01*
X159625021Y-64155002D01*
X159666049Y-64227279D01*
X159701450Y-64302737D01*
X159731427Y-64382002D01*
X159756184Y-64465701D01*
X159775923Y-64554460D01*
X159790847Y-64648906D01*
X159794446Y-64678719D01*
X159796528Y-64703272D01*
X159798083Y-64734181D01*
X159799120Y-64769882D01*
X159799648Y-64808812D01*
X159799675Y-64849408D01*
X159799675Y-64849408D01*
G36*
X163507904Y-64432984D02*
X163507259Y-64458453D01*
X163501025Y-64533538D01*
X163488380Y-64604151D01*
X163469215Y-64670646D01*
X163443420Y-64733380D01*
X163410886Y-64792708D01*
X163397852Y-64812786D01*
X163358518Y-64865025D01*
X163315849Y-64910167D01*
X163269444Y-64948490D01*
X163218901Y-64980272D01*
X163163817Y-65005791D01*
X163103792Y-65025326D01*
X163083875Y-65030267D01*
X163077369Y-65031604D01*
X163069793Y-65032779D01*
X163060561Y-65033809D01*
X163049086Y-65034712D01*
X163034781Y-65035506D01*
X163017057Y-65036209D01*
X162995329Y-65036838D01*
X162969009Y-65037411D01*
X162937510Y-65037946D01*
X162900244Y-65038461D01*
X162856625Y-65038973D01*
X162806065Y-65039501D01*
X162766375Y-65039888D01*
X162711544Y-65040418D01*
X162664047Y-65040902D01*
X162623282Y-65041363D01*
X162588644Y-65041820D01*
X162559531Y-65042295D01*
X162535340Y-65042810D01*
X162515468Y-65043387D01*
X162499312Y-65044045D01*
X162486269Y-65044807D01*
X162475735Y-65045694D01*
X162467107Y-65046727D01*
X162459783Y-65047928D01*
X162453159Y-65049317D01*
X162446633Y-65050917D01*
X162445398Y-65051236D01*
X162402303Y-65065705D01*
X162364802Y-65085500D01*
X162332619Y-65110894D01*
X162305477Y-65142166D01*
X162283098Y-65179591D01*
X162265206Y-65223445D01*
X162261735Y-65234344D01*
X162260019Y-65240099D01*
X162258533Y-65245669D01*
X162257256Y-65251645D01*
X162256171Y-65258622D01*
X162255257Y-65267192D01*
X162254495Y-65277948D01*
X162253866Y-65291484D01*
X162253351Y-65308393D01*
X162252931Y-65329267D01*
X162252586Y-65354700D01*
X162252296Y-65385285D01*
X162252044Y-65421615D01*
X162251808Y-65464284D01*
X162251572Y-65513883D01*
X162251395Y-65552836D01*
X162250098Y-65841563D01*
X162028018Y-65841563D01*
X161805938Y-65841563D01*
X161805938Y-65485065D01*
X161805958Y-65418790D01*
X161806032Y-65359898D01*
X161806178Y-65307834D01*
X161806414Y-65262043D01*
X161806760Y-65221971D01*
X161807235Y-65187062D01*
X161807856Y-65156761D01*
X161808643Y-65130515D01*
X161809614Y-65107768D01*
X161810788Y-65087966D01*
X161812185Y-65070553D01*
X161813821Y-65054975D01*
X161815717Y-65040677D01*
X161817891Y-65027105D01*
X161820361Y-65013703D01*
X161822142Y-65004790D01*
X161838651Y-64941521D01*
X161861269Y-64882695D01*
X161889721Y-64828623D01*
X161923730Y-64779616D01*
X161963023Y-64735984D01*
X162007325Y-64698039D01*
X162056359Y-64666091D01*
X162109852Y-64640451D01*
X162159303Y-64623658D01*
X162172438Y-64620031D01*
X162184719Y-64616835D01*
X162196727Y-64614039D01*
X162209042Y-64611612D01*
X162222245Y-64609522D01*
X162236916Y-64607738D01*
X162253635Y-64606228D01*
X162272982Y-64604961D01*
X162295539Y-64603906D01*
X162321886Y-64603031D01*
X162352602Y-64602305D01*
X162388269Y-64601696D01*
X162429466Y-64601174D01*
X162476775Y-64600706D01*
X162530775Y-64600261D01*
X162592047Y-64599809D01*
X162601672Y-64599740D01*
X162935047Y-64597360D01*
X162954891Y-64587564D01*
X162982228Y-64569931D01*
X163004541Y-64547178D01*
X163021850Y-64520312D01*
X163034177Y-64490341D01*
X163041544Y-64458271D01*
X163043971Y-64425111D01*
X163041480Y-64391866D01*
X163034093Y-64359545D01*
X163021830Y-64329154D01*
X163004714Y-64301701D01*
X162982766Y-64278192D01*
X162956007Y-64259636D01*
X162947836Y-64255548D01*
X162923141Y-64244141D01*
X161690844Y-64244141D01*
X161573515Y-64244142D01*
X161463859Y-64244147D01*
X161361612Y-64244156D01*
X161266511Y-64244172D01*
X161178290Y-64244196D01*
X161096685Y-64244230D01*
X161021434Y-64244274D01*
X160952270Y-64244332D01*
X160888930Y-64244403D01*
X160831150Y-64244490D01*
X160778666Y-64244595D01*
X160731213Y-64244718D01*
X160688528Y-64244862D01*
X160650346Y-64245027D01*
X160616403Y-64245216D01*
X160586434Y-64245431D01*
X160560176Y-64245671D01*
X160537364Y-64245940D01*
X160517735Y-64246238D01*
X160501024Y-64246568D01*
X160486966Y-64246930D01*
X160475298Y-64247327D01*
X160465756Y-64247759D01*
X160458075Y-64248229D01*
X160451990Y-64248737D01*
X160447239Y-64249286D01*
X160443557Y-64249877D01*
X160440679Y-64250512D01*
X160438342Y-64251191D01*
X160437526Y-64251466D01*
X160417760Y-64261403D01*
X160397312Y-64276888D01*
X160378246Y-64296021D01*
X160362627Y-64316903D01*
X160358320Y-64324341D01*
X160342927Y-64361572D01*
X160334767Y-64400968D01*
X160333876Y-64441349D01*
X160340289Y-64481534D01*
X160352538Y-64517016D01*
X160363935Y-64536407D01*
X160380193Y-64555959D01*
X160398990Y-64573298D01*
X160418001Y-64586049D01*
X160422027Y-64588024D01*
X160442672Y-64597360D01*
X160815734Y-64599635D01*
X160881206Y-64600035D01*
X160939280Y-64600413D01*
X160990498Y-64600798D01*
X161035401Y-64601223D01*
X161074529Y-64601717D01*
X161108422Y-64602311D01*
X161137621Y-64603038D01*
X161162667Y-64603928D01*
X161184101Y-64605011D01*
X161202462Y-64606320D01*
X161218291Y-64607885D01*
X161232130Y-64609737D01*
X161244518Y-64611907D01*
X161255996Y-64614426D01*
X161267105Y-64617325D01*
X161278386Y-64620635D01*
X161290378Y-64624388D01*
X161299922Y-64627434D01*
X161353123Y-64648509D01*
X161404016Y-64676782D01*
X161451979Y-64711699D01*
X161496395Y-64752701D01*
X161536642Y-64799234D01*
X161572103Y-64850741D01*
X161595444Y-64892820D01*
X161621852Y-64953859D01*
X161642276Y-65018987D01*
X161656713Y-65087142D01*
X161665158Y-65157266D01*
X161667609Y-65228297D01*
X161664062Y-65299177D01*
X161654515Y-65368844D01*
X161638964Y-65436239D01*
X161617405Y-65500301D01*
X161597467Y-65545169D01*
X161564976Y-65602914D01*
X161527749Y-65655091D01*
X161486157Y-65701367D01*
X161440572Y-65741414D01*
X161391365Y-65774901D01*
X161338908Y-65801499D01*
X161288767Y-65819406D01*
X161278842Y-65822285D01*
X161269604Y-65824904D01*
X161260649Y-65827274D01*
X161251578Y-65829409D01*
X161241988Y-65831319D01*
X161231477Y-65833018D01*
X161219644Y-65834518D01*
X161206087Y-65835832D01*
X161190405Y-65836971D01*
X161172195Y-65837948D01*
X161151057Y-65838776D01*
X161126588Y-65839467D01*
X161098388Y-65840034D01*
X161066053Y-65840488D01*
X161029183Y-65840842D01*
X160987376Y-65841108D01*
X160940231Y-65841300D01*
X160887345Y-65841428D01*
X160828317Y-65841507D01*
X160762745Y-65841547D01*
X160690228Y-65841562D01*
X160610364Y-65841563D01*
X160570155Y-65841563D01*
X159968406Y-65841563D01*
X159968406Y-65625333D01*
X159968406Y-65409103D01*
X160527008Y-65408044D01*
X161085609Y-65406985D01*
X161106302Y-65397628D01*
X161131835Y-65381862D01*
X161154038Y-65359666D01*
X161172384Y-65332036D01*
X161186347Y-65299968D01*
X161195401Y-65264457D01*
X161199020Y-65226499D01*
X161199064Y-65222083D01*
X161196306Y-65179983D01*
X161187849Y-65143216D01*
X161173580Y-65111477D01*
X161153383Y-65084457D01*
X161144647Y-65075834D01*
X161138881Y-65070408D01*
X161133834Y-65065599D01*
X161129019Y-65061367D01*
X161123948Y-65057671D01*
X161118135Y-65054473D01*
X161111092Y-65051732D01*
X161102331Y-65049408D01*
X161091366Y-65047462D01*
X161077708Y-65045853D01*
X161060870Y-65044542D01*
X161040366Y-65043489D01*
X161015707Y-65042654D01*
X160986407Y-65041996D01*
X160951978Y-65041477D01*
X160911932Y-65041057D01*
X160865782Y-65040694D01*
X160813042Y-65040350D01*
X160753223Y-65039985D01*
X160702625Y-65039668D01*
X160638067Y-65039241D01*
X160580952Y-65038834D01*
X160530788Y-65038437D01*
X160487081Y-65038038D01*
X160449337Y-65037626D01*
X160417063Y-65037190D01*
X160389766Y-65036720D01*
X160366951Y-65036204D01*
X160348126Y-65035631D01*
X160332797Y-65034991D01*
X160320470Y-65034272D01*
X160310651Y-65033463D01*
X160302849Y-65032554D01*
X160296568Y-65031534D01*
X160291859Y-65030523D01*
X160236792Y-65015017D01*
X160187708Y-64996095D01*
X160143083Y-64972916D01*
X160101392Y-64944638D01*
X160061110Y-64910419D01*
X160043625Y-64893450D01*
X160000025Y-64844712D01*
X159962930Y-64792553D01*
X159932107Y-64736482D01*
X159907320Y-64676007D01*
X159888336Y-64610636D01*
X159874919Y-64539878D01*
X159874911Y-64539823D01*
X159871833Y-64510895D01*
X159869996Y-64476530D01*
X159869357Y-64438736D01*
X159869871Y-64399519D01*
X159871493Y-64360885D01*
X159874179Y-64324841D01*
X159877884Y-64293394D01*
X159880754Y-64276687D01*
X159898729Y-64206517D01*
X159923568Y-64140037D01*
X159955126Y-64077544D01*
X159993261Y-64019334D01*
X160021638Y-63983786D01*
X160065011Y-63939284D01*
X160112829Y-63901340D01*
X160164966Y-63870026D01*
X160221295Y-63845413D01*
X160281691Y-63827570D01*
X160313090Y-63821259D01*
X160317361Y-63820549D01*
X160321811Y-63819885D01*
X160326698Y-63819263D01*
X160332282Y-63818684D01*
X160338822Y-63818145D01*
X160346577Y-63817645D01*
X160355806Y-63817182D01*
X160366768Y-63816756D01*
X160379723Y-63816364D01*
X160394930Y-63816005D01*
X160412648Y-63815677D01*
X160433135Y-63815380D01*
X160456652Y-63815112D01*
X160483457Y-63814871D01*
X160513810Y-63814656D01*
X160547969Y-63814465D01*
X160586194Y-63814297D01*
X160628744Y-63814150D01*
X160675878Y-63814024D01*
X160727855Y-63813916D01*
X160784934Y-63813825D01*
X160847376Y-63813749D01*
X160915438Y-63813688D01*
X160989379Y-63813639D01*
X161069460Y-63813602D01*
X161155939Y-63813574D01*
X161249076Y-63813555D01*
X161349129Y-63813542D01*
X161456358Y-63813535D01*
X161571021Y-63813532D01*
X161685768Y-63813532D01*
X161809725Y-63813529D01*
X161926002Y-63813522D01*
X162034857Y-63813514D01*
X162136547Y-63813512D01*
X162231329Y-63813519D01*
X162319462Y-63813538D01*
X162401202Y-63813576D01*
X162476807Y-63813636D01*
X162546535Y-63813723D01*
X162610643Y-63813841D01*
X162669388Y-63813994D01*
X162723029Y-63814186D01*
X162771823Y-63814423D01*
X162816026Y-63814708D01*
X162855898Y-63815046D01*
X162891694Y-63815441D01*
X162923673Y-63815898D01*
X162952093Y-63816420D01*
X162977210Y-63817013D01*
X162999283Y-63817680D01*
X163018569Y-63818426D01*
X163035324Y-63819256D01*
X163049808Y-63820173D01*
X163062277Y-63821183D01*
X163072989Y-63822288D01*
X163082201Y-63823495D01*
X163090171Y-63824807D01*
X163097157Y-63826228D01*
X163103415Y-63827764D01*
X163109204Y-63829417D01*
X163114781Y-63831193D01*
X163120403Y-63833097D01*
X163126328Y-63835131D01*
X163132814Y-63837302D01*
X163135336Y-63838117D01*
X163193119Y-63860663D01*
X163246892Y-63890052D01*
X163296608Y-63926246D01*
X163342217Y-63969212D01*
X163383672Y-64018911D01*
X163390361Y-64028109D01*
X163426671Y-64085852D01*
X163456392Y-64147856D01*
X163479451Y-64213846D01*
X163495773Y-64283548D01*
X163505282Y-64356685D01*
X163507904Y-64432984D01*
X163507904Y-64432984D01*
X163507904Y-64432984D01*
G37*
X163507904Y-64432984D02*
X163507259Y-64458453D01*
X163501025Y-64533538D01*
X163488380Y-64604151D01*
X163469215Y-64670646D01*
X163443420Y-64733380D01*
X163410886Y-64792708D01*
X163397852Y-64812786D01*
X163358518Y-64865025D01*
X163315849Y-64910167D01*
X163269444Y-64948490D01*
X163218901Y-64980272D01*
X163163817Y-65005791D01*
X163103792Y-65025326D01*
X163083875Y-65030267D01*
X163077369Y-65031604D01*
X163069793Y-65032779D01*
X163060561Y-65033809D01*
X163049086Y-65034712D01*
X163034781Y-65035506D01*
X163017057Y-65036209D01*
X162995329Y-65036838D01*
X162969009Y-65037411D01*
X162937510Y-65037946D01*
X162900244Y-65038461D01*
X162856625Y-65038973D01*
X162806065Y-65039501D01*
X162766375Y-65039888D01*
X162711544Y-65040418D01*
X162664047Y-65040902D01*
X162623282Y-65041363D01*
X162588644Y-65041820D01*
X162559531Y-65042295D01*
X162535340Y-65042810D01*
X162515468Y-65043387D01*
X162499312Y-65044045D01*
X162486269Y-65044807D01*
X162475735Y-65045694D01*
X162467107Y-65046727D01*
X162459783Y-65047928D01*
X162453159Y-65049317D01*
X162446633Y-65050917D01*
X162445398Y-65051236D01*
X162402303Y-65065705D01*
X162364802Y-65085500D01*
X162332619Y-65110894D01*
X162305477Y-65142166D01*
X162283098Y-65179591D01*
X162265206Y-65223445D01*
X162261735Y-65234344D01*
X162260019Y-65240099D01*
X162258533Y-65245669D01*
X162257256Y-65251645D01*
X162256171Y-65258622D01*
X162255257Y-65267192D01*
X162254495Y-65277948D01*
X162253866Y-65291484D01*
X162253351Y-65308393D01*
X162252931Y-65329267D01*
X162252586Y-65354700D01*
X162252296Y-65385285D01*
X162252044Y-65421615D01*
X162251808Y-65464284D01*
X162251572Y-65513883D01*
X162251395Y-65552836D01*
X162250098Y-65841563D01*
X162028018Y-65841563D01*
X161805938Y-65841563D01*
X161805938Y-65485065D01*
X161805958Y-65418790D01*
X161806032Y-65359898D01*
X161806178Y-65307834D01*
X161806414Y-65262043D01*
X161806760Y-65221971D01*
X161807235Y-65187062D01*
X161807856Y-65156761D01*
X161808643Y-65130515D01*
X161809614Y-65107768D01*
X161810788Y-65087966D01*
X161812185Y-65070553D01*
X161813821Y-65054975D01*
X161815717Y-65040677D01*
X161817891Y-65027105D01*
X161820361Y-65013703D01*
X161822142Y-65004790D01*
X161838651Y-64941521D01*
X161861269Y-64882695D01*
X161889721Y-64828623D01*
X161923730Y-64779616D01*
X161963023Y-64735984D01*
X162007325Y-64698039D01*
X162056359Y-64666091D01*
X162109852Y-64640451D01*
X162159303Y-64623658D01*
X162172438Y-64620031D01*
X162184719Y-64616835D01*
X162196727Y-64614039D01*
X162209042Y-64611612D01*
X162222245Y-64609522D01*
X162236916Y-64607738D01*
X162253635Y-64606228D01*
X162272982Y-64604961D01*
X162295539Y-64603906D01*
X162321886Y-64603031D01*
X162352602Y-64602305D01*
X162388269Y-64601696D01*
X162429466Y-64601174D01*
X162476775Y-64600706D01*
X162530775Y-64600261D01*
X162592047Y-64599809D01*
X162601672Y-64599740D01*
X162935047Y-64597360D01*
X162954891Y-64587564D01*
X162982228Y-64569931D01*
X163004541Y-64547178D01*
X163021850Y-64520312D01*
X163034177Y-64490341D01*
X163041544Y-64458271D01*
X163043971Y-64425111D01*
X163041480Y-64391866D01*
X163034093Y-64359545D01*
X163021830Y-64329154D01*
X163004714Y-64301701D01*
X162982766Y-64278192D01*
X162956007Y-64259636D01*
X162947836Y-64255548D01*
X162923141Y-64244141D01*
X161690844Y-64244141D01*
X161573515Y-64244142D01*
X161463859Y-64244147D01*
X161361612Y-64244156D01*
X161266511Y-64244172D01*
X161178290Y-64244196D01*
X161096685Y-64244230D01*
X161021434Y-64244274D01*
X160952270Y-64244332D01*
X160888930Y-64244403D01*
X160831150Y-64244490D01*
X160778666Y-64244595D01*
X160731213Y-64244718D01*
X160688528Y-64244862D01*
X160650346Y-64245027D01*
X160616403Y-64245216D01*
X160586434Y-64245431D01*
X160560176Y-64245671D01*
X160537364Y-64245940D01*
X160517735Y-64246238D01*
X160501024Y-64246568D01*
X160486966Y-64246930D01*
X160475298Y-64247327D01*
X160465756Y-64247759D01*
X160458075Y-64248229D01*
X160451990Y-64248737D01*
X160447239Y-64249286D01*
X160443557Y-64249877D01*
X160440679Y-64250512D01*
X160438342Y-64251191D01*
X160437526Y-64251466D01*
X160417760Y-64261403D01*
X160397312Y-64276888D01*
X160378246Y-64296021D01*
X160362627Y-64316903D01*
X160358320Y-64324341D01*
X160342927Y-64361572D01*
X160334767Y-64400968D01*
X160333876Y-64441349D01*
X160340289Y-64481534D01*
X160352538Y-64517016D01*
X160363935Y-64536407D01*
X160380193Y-64555959D01*
X160398990Y-64573298D01*
X160418001Y-64586049D01*
X160422027Y-64588024D01*
X160442672Y-64597360D01*
X160815734Y-64599635D01*
X160881206Y-64600035D01*
X160939280Y-64600413D01*
X160990498Y-64600798D01*
X161035401Y-64601223D01*
X161074529Y-64601717D01*
X161108422Y-64602311D01*
X161137621Y-64603038D01*
X161162667Y-64603928D01*
X161184101Y-64605011D01*
X161202462Y-64606320D01*
X161218291Y-64607885D01*
X161232130Y-64609737D01*
X161244518Y-64611907D01*
X161255996Y-64614426D01*
X161267105Y-64617325D01*
X161278386Y-64620635D01*
X161290378Y-64624388D01*
X161299922Y-64627434D01*
X161353123Y-64648509D01*
X161404016Y-64676782D01*
X161451979Y-64711699D01*
X161496395Y-64752701D01*
X161536642Y-64799234D01*
X161572103Y-64850741D01*
X161595444Y-64892820D01*
X161621852Y-64953859D01*
X161642276Y-65018987D01*
X161656713Y-65087142D01*
X161665158Y-65157266D01*
X161667609Y-65228297D01*
X161664062Y-65299177D01*
X161654515Y-65368844D01*
X161638964Y-65436239D01*
X161617405Y-65500301D01*
X161597467Y-65545169D01*
X161564976Y-65602914D01*
X161527749Y-65655091D01*
X161486157Y-65701367D01*
X161440572Y-65741414D01*
X161391365Y-65774901D01*
X161338908Y-65801499D01*
X161288767Y-65819406D01*
X161278842Y-65822285D01*
X161269604Y-65824904D01*
X161260649Y-65827274D01*
X161251578Y-65829409D01*
X161241988Y-65831319D01*
X161231477Y-65833018D01*
X161219644Y-65834518D01*
X161206087Y-65835832D01*
X161190405Y-65836971D01*
X161172195Y-65837948D01*
X161151057Y-65838776D01*
X161126588Y-65839467D01*
X161098388Y-65840034D01*
X161066053Y-65840488D01*
X161029183Y-65840842D01*
X160987376Y-65841108D01*
X160940231Y-65841300D01*
X160887345Y-65841428D01*
X160828317Y-65841507D01*
X160762745Y-65841547D01*
X160690228Y-65841562D01*
X160610364Y-65841563D01*
X160570155Y-65841563D01*
X159968406Y-65841563D01*
X159968406Y-65625333D01*
X159968406Y-65409103D01*
X160527008Y-65408044D01*
X161085609Y-65406985D01*
X161106302Y-65397628D01*
X161131835Y-65381862D01*
X161154038Y-65359666D01*
X161172384Y-65332036D01*
X161186347Y-65299968D01*
X161195401Y-65264457D01*
X161199020Y-65226499D01*
X161199064Y-65222083D01*
X161196306Y-65179983D01*
X161187849Y-65143216D01*
X161173580Y-65111477D01*
X161153383Y-65084457D01*
X161144647Y-65075834D01*
X161138881Y-65070408D01*
X161133834Y-65065599D01*
X161129019Y-65061367D01*
X161123948Y-65057671D01*
X161118135Y-65054473D01*
X161111092Y-65051732D01*
X161102331Y-65049408D01*
X161091366Y-65047462D01*
X161077708Y-65045853D01*
X161060870Y-65044542D01*
X161040366Y-65043489D01*
X161015707Y-65042654D01*
X160986407Y-65041996D01*
X160951978Y-65041477D01*
X160911932Y-65041057D01*
X160865782Y-65040694D01*
X160813042Y-65040350D01*
X160753223Y-65039985D01*
X160702625Y-65039668D01*
X160638067Y-65039241D01*
X160580952Y-65038834D01*
X160530788Y-65038437D01*
X160487081Y-65038038D01*
X160449337Y-65037626D01*
X160417063Y-65037190D01*
X160389766Y-65036720D01*
X160366951Y-65036204D01*
X160348126Y-65035631D01*
X160332797Y-65034991D01*
X160320470Y-65034272D01*
X160310651Y-65033463D01*
X160302849Y-65032554D01*
X160296568Y-65031534D01*
X160291859Y-65030523D01*
X160236792Y-65015017D01*
X160187708Y-64996095D01*
X160143083Y-64972916D01*
X160101392Y-64944638D01*
X160061110Y-64910419D01*
X160043625Y-64893450D01*
X160000025Y-64844712D01*
X159962930Y-64792553D01*
X159932107Y-64736482D01*
X159907320Y-64676007D01*
X159888336Y-64610636D01*
X159874919Y-64539878D01*
X159874911Y-64539823D01*
X159871833Y-64510895D01*
X159869996Y-64476530D01*
X159869357Y-64438736D01*
X159869871Y-64399519D01*
X159871493Y-64360885D01*
X159874179Y-64324841D01*
X159877884Y-64293394D01*
X159880754Y-64276687D01*
X159898729Y-64206517D01*
X159923568Y-64140037D01*
X159955126Y-64077544D01*
X159993261Y-64019334D01*
X160021638Y-63983786D01*
X160065011Y-63939284D01*
X160112829Y-63901340D01*
X160164966Y-63870026D01*
X160221295Y-63845413D01*
X160281691Y-63827570D01*
X160313090Y-63821259D01*
X160317361Y-63820549D01*
X160321811Y-63819885D01*
X160326698Y-63819263D01*
X160332282Y-63818684D01*
X160338822Y-63818145D01*
X160346577Y-63817645D01*
X160355806Y-63817182D01*
X160366768Y-63816756D01*
X160379723Y-63816364D01*
X160394930Y-63816005D01*
X160412648Y-63815677D01*
X160433135Y-63815380D01*
X160456652Y-63815112D01*
X160483457Y-63814871D01*
X160513810Y-63814656D01*
X160547969Y-63814465D01*
X160586194Y-63814297D01*
X160628744Y-63814150D01*
X160675878Y-63814024D01*
X160727855Y-63813916D01*
X160784934Y-63813825D01*
X160847376Y-63813749D01*
X160915438Y-63813688D01*
X160989379Y-63813639D01*
X161069460Y-63813602D01*
X161155939Y-63813574D01*
X161249076Y-63813555D01*
X161349129Y-63813542D01*
X161456358Y-63813535D01*
X161571021Y-63813532D01*
X161685768Y-63813532D01*
X161809725Y-63813529D01*
X161926002Y-63813522D01*
X162034857Y-63813514D01*
X162136547Y-63813512D01*
X162231329Y-63813519D01*
X162319462Y-63813538D01*
X162401202Y-63813576D01*
X162476807Y-63813636D01*
X162546535Y-63813723D01*
X162610643Y-63813841D01*
X162669388Y-63813994D01*
X162723029Y-63814186D01*
X162771823Y-63814423D01*
X162816026Y-63814708D01*
X162855898Y-63815046D01*
X162891694Y-63815441D01*
X162923673Y-63815898D01*
X162952093Y-63816420D01*
X162977210Y-63817013D01*
X162999283Y-63817680D01*
X163018569Y-63818426D01*
X163035324Y-63819256D01*
X163049808Y-63820173D01*
X163062277Y-63821183D01*
X163072989Y-63822288D01*
X163082201Y-63823495D01*
X163090171Y-63824807D01*
X163097157Y-63826228D01*
X163103415Y-63827764D01*
X163109204Y-63829417D01*
X163114781Y-63831193D01*
X163120403Y-63833097D01*
X163126328Y-63835131D01*
X163132814Y-63837302D01*
X163135336Y-63838117D01*
X163193119Y-63860663D01*
X163246892Y-63890052D01*
X163296608Y-63926246D01*
X163342217Y-63969212D01*
X163383672Y-64018911D01*
X163390361Y-64028109D01*
X163426671Y-64085852D01*
X163456392Y-64147856D01*
X163479451Y-64213846D01*
X163495773Y-64283548D01*
X163505282Y-64356685D01*
X163507904Y-64432984D01*
X163507904Y-64432984D01*
G36*
X159057442Y-64810193D02*
X159055574Y-64875729D01*
X159048934Y-64939643D01*
X159037566Y-65000329D01*
X159021517Y-65056185D01*
X159021407Y-65056501D01*
X158998245Y-65113883D01*
X158971050Y-65164479D01*
X158939773Y-65208373D01*
X158904361Y-65245646D01*
X158902731Y-65247114D01*
X158886790Y-65261376D01*
X158837246Y-65215689D01*
X158816520Y-65196455D01*
X158793811Y-65175183D01*
X158771486Y-65154100D01*
X158751913Y-65135437D01*
X158746699Y-65130419D01*
X158705694Y-65090835D01*
X158729134Y-65066347D01*
X158741687Y-65052368D01*
X158753405Y-65037838D01*
X158762043Y-65025567D01*
X158763014Y-65023959D01*
X158780928Y-64986762D01*
X158795014Y-64944006D01*
X158805140Y-64897154D01*
X158811177Y-64847671D01*
X158812996Y-64797020D01*
X158810467Y-64746664D01*
X158803460Y-64698067D01*
X158795005Y-64663018D01*
X158781808Y-64625142D01*
X158765712Y-64593514D01*
X158745907Y-64566726D01*
X158730789Y-64551358D01*
X158704825Y-64527567D01*
X158740444Y-64493010D01*
X158756232Y-64477502D01*
X158775457Y-64458324D01*
X158796067Y-64437539D01*
X158816010Y-64417211D01*
X158823180Y-64409836D01*
X158838836Y-64393856D01*
X158852652Y-64380084D01*
X158863663Y-64369454D01*
X158870908Y-64362901D01*
X158873327Y-64361219D01*
X158878929Y-64363976D01*
X158888452Y-64371398D01*
X158900549Y-64382213D01*
X158913874Y-64395147D01*
X158927081Y-64408927D01*
X158938824Y-64422281D01*
X158941914Y-64426080D01*
X158962832Y-64455891D01*
X158983287Y-64491507D01*
X159002276Y-64530814D01*
X159018794Y-64571698D01*
X159031837Y-64612045D01*
X159033945Y-64619880D01*
X159046673Y-64680665D01*
X159054490Y-64744637D01*
X159057442Y-64810193D01*
X159057442Y-64810193D01*
X159057442Y-64810193D01*
G37*
X159057442Y-64810193D02*
X159055574Y-64875729D01*
X159048934Y-64939643D01*
X159037566Y-65000329D01*
X159021517Y-65056185D01*
X159021407Y-65056501D01*
X158998245Y-65113883D01*
X158971050Y-65164479D01*
X158939773Y-65208373D01*
X158904361Y-65245646D01*
X158902731Y-65247114D01*
X158886790Y-65261376D01*
X158837246Y-65215689D01*
X158816520Y-65196455D01*
X158793811Y-65175183D01*
X158771486Y-65154100D01*
X158751913Y-65135437D01*
X158746699Y-65130419D01*
X158705694Y-65090835D01*
X158729134Y-65066347D01*
X158741687Y-65052368D01*
X158753405Y-65037838D01*
X158762043Y-65025567D01*
X158763014Y-65023959D01*
X158780928Y-64986762D01*
X158795014Y-64944006D01*
X158805140Y-64897154D01*
X158811177Y-64847671D01*
X158812996Y-64797020D01*
X158810467Y-64746664D01*
X158803460Y-64698067D01*
X158795005Y-64663018D01*
X158781808Y-64625142D01*
X158765712Y-64593514D01*
X158745907Y-64566726D01*
X158730789Y-64551358D01*
X158704825Y-64527567D01*
X158740444Y-64493010D01*
X158756232Y-64477502D01*
X158775457Y-64458324D01*
X158796067Y-64437539D01*
X158816010Y-64417211D01*
X158823180Y-64409836D01*
X158838836Y-64393856D01*
X158852652Y-64380084D01*
X158863663Y-64369454D01*
X158870908Y-64362901D01*
X158873327Y-64361219D01*
X158878929Y-64363976D01*
X158888452Y-64371398D01*
X158900549Y-64382213D01*
X158913874Y-64395147D01*
X158927081Y-64408927D01*
X158938824Y-64422281D01*
X158941914Y-64426080D01*
X158962832Y-64455891D01*
X158983287Y-64491507D01*
X159002276Y-64530814D01*
X159018794Y-64571698D01*
X159031837Y-64612045D01*
X159033945Y-64619880D01*
X159046673Y-64680665D01*
X159054490Y-64744637D01*
X159057442Y-64810193D01*
X159057442Y-64810193D01*
G36*
X158566902Y-64848634D02*
X158566835Y-64904782D01*
X158566700Y-64957564D01*
X158566497Y-65004752D01*
X158566484Y-65006996D01*
X158565453Y-65191797D01*
X158459569Y-65084086D01*
X158353686Y-64976375D01*
X158206562Y-64976375D01*
X158059438Y-64976375D01*
X158059438Y-64823578D01*
X158059438Y-64670782D01*
X158205403Y-64670782D01*
X158351368Y-64670782D01*
X158458411Y-64559242D01*
X158565453Y-64447702D01*
X158566484Y-64634949D01*
X158566691Y-64682278D01*
X158566830Y-64735154D01*
X158566900Y-64791349D01*
X158566902Y-64848634D01*
X158566902Y-64848634D01*
X158566902Y-64848634D01*
G37*
X158566902Y-64848634D02*
X158566835Y-64904782D01*
X158566700Y-64957564D01*
X158566497Y-65004752D01*
X158566484Y-65006996D01*
X158565453Y-65191797D01*
X158459569Y-65084086D01*
X158353686Y-64976375D01*
X158206562Y-64976375D01*
X158059438Y-64976375D01*
X158059438Y-64823578D01*
X158059438Y-64670782D01*
X158205403Y-64670782D01*
X158351368Y-64670782D01*
X158458411Y-64559242D01*
X158565453Y-64447702D01*
X158566484Y-64634949D01*
X158566691Y-64682278D01*
X158566830Y-64735154D01*
X158566900Y-64791349D01*
X158566902Y-64848634D01*
X158566902Y-64848634D01*
D11*
X222500000Y-62500000D03*
X222500000Y-107500000D03*
D12*
X210185000Y-72390000D03*
X206375000Y-72390000D03*
X208280000Y-72370000D03*
X195580000Y-77470000D03*
X193040000Y-77470000D03*
X190500000Y-77470000D03*
X187325000Y-74930000D03*
X189230000Y-76280000D03*
X194310000Y-76200000D03*
X154305000Y-81915000D03*
X154305000Y-79375000D03*
X161925000Y-77470000D03*
X173990000Y-69215000D03*
X156845000Y-71120000D03*
X166370000Y-101600000D03*
X163830000Y-101600000D03*
X161290000Y-101600000D03*
X208280000Y-93980000D03*
X180340000Y-83820000D03*
X180340000Y-86360000D03*
X180340000Y-88900000D03*
X180340000Y-91440000D03*
X180340000Y-93980000D03*
X180340000Y-96520000D03*
X180340000Y-99060000D03*
X180340000Y-101600000D03*
X194310000Y-93980000D03*
X194310000Y-96520000D03*
X194310000Y-99060000D03*
X194310000Y-101600000D03*
X208280000Y-88900000D03*
X208280000Y-91440000D03*
X208280000Y-96520000D03*
X208280000Y-99060000D03*
X208280000Y-101600000D03*
X168910000Y-92710000D03*
X167640000Y-91440000D03*
X172720000Y-64770000D03*
X170815000Y-64770000D03*
X170815000Y-66040000D03*
X169545000Y-77470000D03*
X169545000Y-74930000D03*
X169545000Y-76200000D03*
X198120000Y-106045000D03*
X187960000Y-106045000D03*
X177800000Y-106045000D03*
X208280000Y-107315000D03*
X198120000Y-107315000D03*
X187960000Y-107315000D03*
X177800000Y-107315000D03*
X167640000Y-107315000D03*
X167640000Y-106045000D03*
X157480000Y-106045000D03*
X157480000Y-107315000D03*
X151765000Y-69215000D03*
X151765000Y-70485000D03*
X151765000Y-76835000D03*
X151765000Y-75565000D03*
X151765000Y-74295000D03*
X151765000Y-73025000D03*
X151765000Y-71755000D03*
X154305000Y-71755000D03*
X154305000Y-73025000D03*
X154305000Y-74295000D03*
X154305000Y-75565000D03*
X154305000Y-76835000D03*
X159004000Y-81915000D03*
X158750000Y-74930000D03*
X158750000Y-73660000D03*
X158750000Y-72390000D03*
X160020000Y-74930000D03*
X160020000Y-73660000D03*
X160020000Y-72390000D03*
D13*
X151765000Y-83820000D03*
D14*
X213360000Y-72390000D03*
X213360000Y-69850000D03*
D15*
X175240000Y-66040000D03*
X172740000Y-66040000D03*
D14*
X191770000Y-76200000D03*
X191770000Y-73660000D03*
D15*
X149860000Y-62230000D03*
X147360000Y-62230000D03*
D16*
X196850000Y-76200000D03*
D17*
X196850000Y-66040000D03*
D18*
X163830000Y-81280000D03*
D19*
X166370000Y-81280000D03*
X168910000Y-81280000D03*
D20*
X165100000Y-92710000D03*
D21*
X165100000Y-95250000D03*
X165100000Y-97790000D03*
D14*
X191770000Y-68580000D03*
X191770000Y-66040000D03*
D22*
X220345000Y-76200000D03*
D23*
X220345000Y-71120000D03*
D24*
X147500000Y-64770000D03*
D25*
X150040000Y-64770000D03*
X147500000Y-67310000D03*
X150040000Y-67310000D03*
X147500000Y-69850000D03*
X150040000Y-69850000D03*
X147500000Y-72390000D03*
X150040000Y-72390000D03*
X147500000Y-74930000D03*
X150040000Y-74930000D03*
X147500000Y-77470000D03*
X150040000Y-77470000D03*
X147500000Y-80010000D03*
X150040000Y-80010000D03*
X147500000Y-82550000D03*
X150040000Y-82550000D03*
X147500000Y-85090000D03*
X150040000Y-85090000D03*
X147500000Y-87630000D03*
X150040000Y-87630000D03*
X147500000Y-90170000D03*
X150040000Y-90170000D03*
D24*
X203200000Y-83820000D03*
D25*
X205740000Y-83820000D03*
X203200000Y-86360000D03*
X205740000Y-86360000D03*
X203200000Y-88900000D03*
X205740000Y-88900000D03*
X203200000Y-91440000D03*
X205740000Y-91440000D03*
X203200000Y-93980000D03*
X205740000Y-93980000D03*
X203200000Y-96520000D03*
X205740000Y-96520000D03*
X203200000Y-99060000D03*
X205740000Y-99060000D03*
X203200000Y-101600000D03*
X205740000Y-101600000D03*
D24*
X217170000Y-83820000D03*
D25*
X219710000Y-83820000D03*
X217170000Y-86360000D03*
X219710000Y-86360000D03*
X217170000Y-88900000D03*
X219710000Y-88900000D03*
X217170000Y-91440000D03*
X219710000Y-91440000D03*
X217170000Y-93980000D03*
X219710000Y-93980000D03*
X217170000Y-96520000D03*
X219710000Y-96520000D03*
X217170000Y-99060000D03*
X219710000Y-99060000D03*
X217170000Y-101600000D03*
X219710000Y-101600000D03*
D24*
X175260000Y-83820000D03*
D25*
X177800000Y-83820000D03*
X175260000Y-86360000D03*
X177800000Y-86360000D03*
X175260000Y-88900000D03*
X177800000Y-88900000D03*
X175260000Y-91440000D03*
X177800000Y-91440000D03*
X175260000Y-93980000D03*
X177800000Y-93980000D03*
X175260000Y-96520000D03*
X177800000Y-96520000D03*
X175260000Y-99060000D03*
X177800000Y-99060000D03*
X175260000Y-101600000D03*
X177800000Y-101600000D03*
D24*
X189230000Y-83820000D03*
D25*
X191770000Y-83820000D03*
X189230000Y-86360000D03*
X191770000Y-86360000D03*
X189230000Y-88900000D03*
X191770000Y-88900000D03*
X189230000Y-91440000D03*
X191770000Y-91440000D03*
X189230000Y-93980000D03*
X191770000Y-93980000D03*
X189230000Y-96520000D03*
X191770000Y-96520000D03*
X189230000Y-99060000D03*
X191770000Y-99060000D03*
X189230000Y-101600000D03*
X191770000Y-101600000D03*
D26*
X168275000Y-71200000D03*
X168275000Y-68500000D03*
X168275000Y-73580000D03*
X168275000Y-76280000D03*
D27*
X171290000Y-68580000D03*
X171290000Y-69850000D03*
X171290000Y-71120000D03*
X171290000Y-72390000D03*
X171290000Y-73660000D03*
X171290000Y-74930000D03*
X171290000Y-76200000D03*
X176690000Y-76200000D03*
X176690000Y-74930000D03*
X176690000Y-73660000D03*
X176690000Y-72390000D03*
X176690000Y-71120000D03*
X176690000Y-69850000D03*
X176690000Y-68580000D03*
D28*
X200685000Y-75174048D03*
X203225000Y-75174048D03*
X205765000Y-75174048D03*
X208305000Y-75174048D03*
X208305000Y-67554048D03*
X205765000Y-67554048D03*
X203225000Y-67554048D03*
X200685000Y-67554048D03*
D14*
X165100000Y-69949060D03*
X165100000Y-74830940D03*
D29*
X161925000Y-73660000D03*
X161925000Y-75560000D03*
X161925000Y-71120000D03*
X161925000Y-69220000D03*
D16*
X222250000Y-67310000D03*
D17*
X212090000Y-67310000D03*
D11*
X147500000Y-107500000D03*
M02*
